<?xml version="1.0" encoding="utf-8"?>
<!-- Generator: Adobe Illustrator 26.5.0, SVG Export Plug-In . SVG Version: 6.00 Build 0)  -->
<svg version="1.1" id="Calque_2" xmlns="http://www.w3.org/2000/svg" xmlns:xlink="http://www.w3.org/1999/xlink" x="0px" y="0px"
	 viewBox="0 0 248 95" style="enable-background:new 0 0 248 95;" xml:space="preserve">
<style type="text/css">
	.st0{fill-rule:evenodd;clip-rule:evenodd;fill:none;}
	.st1{fill-rule:evenodd;clip-rule:evenodd;}
	.st2{fill-rule:evenodd;clip-rule:evenodd;fill:#325EA8;}
	.st3{fill-rule:evenodd;clip-rule:evenodd;fill:#FFFFFF;}
</style>
<g>
	<g>
		<g>
			<rect x="-0.222" y="0.17" class="st0" width="248.445" height="94.659"/>
		</g>
	</g>
	<g>
		<g>
			<g>
				<path d="M102.759,70.787V57.677h-0.1c-0.466,0.426-2.189,0.465-2.92,0.465h-1.267v0.105c1.465,0.896,1.264,2.225,1.264,3.877
					l0.004,5.547c0,2.775-2.727,4.723-4.922,4.723c-2.893,0-4.096-2.057-4.096-5.369v-9.348h-0.098
					c-0.467,0.426-2.201,0.465-2.933,0.465h-1.255v0.105c1.465,0.896,1.264,2.225,1.264,3.877v5.529
					c0,5.062,2.195,7.469,6.121,7.469c2.327,0,4.719-0.826,5.918-2.803v2.395h4.284v-0.109
					C102.562,73.779,102.759,72.443,102.759,70.787z"/>
				<path d="M109.404,63.777c0.401-2.254,2.064-3.684,4.295-3.684c2.396,0,3.926,1.18,4.291,3.684H109.404z M121.486,65.865
					c0.132-4.627-2.963-8.121-7.488-8.121c-4.959,0-8.318,3.6-8.318,8.592c0,5.027,3.891,8.857,9.549,8.857
					c1.564,0,3.162-0.25,4.594-0.891l1.664-3.375h-0.1c-1.531,1.301-3.46,1.92-5.459,1.92c-3.76,0-6.588-2.57-6.654-6.982H121.486z"
					/>
				<path d="M124.127,50.058c0.797,0,2.422-0.049,2.914-0.533h0.1v22.707c0.895,0.25,1.818,0.43,2.742,0.43
					c3.639,0,5.721-2.543,5.721-6.09c0-3.473-1.621-6.16-4.959-6.16c-1.059,0-1.885,0.285-2.777,0.789l1.787-3.059
					c0.758-0.289,1.553-0.398,2.346-0.398c3.771,0,6.977,3.277,6.977,8.186c0,5.621-3.803,9.256-9.82,9.256
					c-2.246,0-4.406-0.396-6.036-0.646v-0.109c1.098-0.506,0.998-1.695,0.998-2.879V55.044c0-1.656,0.199-3.977-1.23-4.877v-0.109
					H124.127z"/>
				<path d="M144.885,63.777c0.398-2.254,2.064-3.684,4.291-3.684c2.396,0,3.928,1.18,4.295,3.684H144.885z M156.963,65.865
					c0.135-4.627-2.961-8.121-7.488-8.121c-4.955,0-8.314,3.6-8.314,8.592c0,5.027,3.891,8.857,9.547,8.857
					c1.564,0,3.162-0.25,4.592-0.891l1.664-3.375h-0.098c-1.533,1.301-3.463,1.92-5.459,1.92c-3.76,0-6.586-2.57-6.654-6.982
					H156.963z"/>
				<path d="M171.847,61.861h-0.1c-0.967-1.191-2.564-1.768-4.062-1.768c-3.226,0-5.555,2.449-5.555,5.871
					c0,4.145,3.229,6.883,6.92,6.883c1.697,0,3.561-0.721,4.859-1.768h0.102l-1.732,3.402c-1.398,0.57-2.928,0.711-4.395,0.711
					c-5.123,0-9.129-3.607-9.129-8.291c0-6.193,4.473-9.158,9.496-9.158c1.199,0,2.43,0.145,3.596,0.43V61.861z"/>
				<path class="st1" d="M117.333,54.773c0-1.674,0-3.604,0-3.604c-2.182,0.98-4.206,2.809-5.558,4.588v1.402
					C115.011,54.978,117.333,54.875,117.333,54.773z"/>
				<path d="M72.743,72.716c-5.025,0-8.521-5.67-8.521-10.486c0-0.049,0-0.496,0.002-0.541c0.061-4.666,3.08-9.043,8.353-9.043
					c5.546,0,8.407,5.25,8.453,10.217c0,0.043,0,0.479,0,0.52C81.03,68.681,77.736,72.716,72.743,72.716z M89.966,78.226
					c-3.709,0.607-7.277-0.562-11.066-4.896c3.661-1.84,5.926-6.416,5.926-10.668c0-0.045-0.002-0.484-0.002-0.529
					c-0.065-7.275-5.531-12.08-12.049-12.08c-6.528,0-12.297,5.002-12.347,12.336c0,0.031,0,0.457,0,0.488
					c0,7.137,5.293,12.432,11.78,12.432c0.934,0,1.832-0.145,2.73-0.359c4.25,3.984,8.041,5.676,11.312,5.281
					c1.554-0.186,3.196-0.801,4.181-2.084L89.966,78.226z"/>
			</g>
		</g>
		<g>
			<g>
				<path d="M21.55,20.255h3.689c2.337,0,3.506,0.807,3.506,2.422c0,0.76-0.263,1.361-0.789,1.802
					c-0.469,0.385-1.103,0.61-1.901,0.676c0.488,0.3,0.812,0.816,0.972,1.549l0.718,3.323h-2.562l-0.69-3.14
					c-0.084-0.375-0.291-0.605-0.619-0.69c-0.132-0.038-0.47-0.057-1.014-0.057l-0.816,3.886H19.48L21.55,20.255z M23.705,22.044
					l-0.465,2.281h0.929c1.267,0,1.901-0.422,1.901-1.267c0-0.676-0.451-1.014-1.352-1.014H23.705z"/>
				<path d="M36.587,27.056h-5.195c0.093,1.042,0.713,1.562,1.858,1.562c0.807,0,1.628-0.183,2.464-0.549l-0.282,1.788
					c-0.873,0.272-1.765,0.408-2.675,0.408c-1.089,0-1.958-0.291-2.605-0.873c-0.686-0.61-1.028-1.45-1.028-2.52
					c0-1.314,0.432-2.37,1.295-3.168c0.826-0.77,1.901-1.155,3.224-1.155c0.995,0,1.762,0.272,2.302,0.817
					c0.54,0.544,0.81,1.314,0.81,2.309C36.756,26.089,36.7,26.549,36.587,27.056z M34.658,25.662
					c0.019-0.141,0.028-0.253,0.028-0.338c0-0.395-0.113-0.711-0.338-0.951c-0.225-0.239-0.535-0.359-0.929-0.359
					c-0.432,0-0.803,0.174-1.112,0.521c-0.272,0.291-0.47,0.667-0.591,1.126H34.658z"/>
				<path d="M44.106,23.015l-0.549,1.591c-0.816-0.272-1.455-0.408-1.915-0.408c-0.751,0-1.126,0.221-1.126,0.662
					c0,0.244,0.258,0.47,0.774,0.676c0.779,0.31,1.253,0.521,1.422,0.634c0.516,0.347,0.774,0.821,0.774,1.422
					c0,0.883-0.366,1.559-1.098,2.028c-0.62,0.404-1.394,0.605-2.323,0.605c-1.023,0-1.985-0.155-2.886-0.465l0.521-1.746
					c0.667,0.329,1.342,0.493,2.027,0.493c0.845,0,1.267-0.216,1.267-0.648c0-0.281-0.249-0.53-0.746-0.746
					c-0.77-0.329-1.23-0.549-1.38-0.662c-0.498-0.357-0.746-0.854-0.746-1.493c0-0.807,0.389-1.427,1.168-1.858
					c0.638-0.347,1.394-0.521,2.267-0.521C42.327,22.579,43.177,22.724,44.106,23.015z"/>
				<path d="M51.076,23.015l-0.549,1.591c-0.816-0.272-1.455-0.408-1.915-0.408c-0.751,0-1.126,0.221-1.126,0.662
					c0,0.244,0.258,0.47,0.774,0.676c0.779,0.31,1.253,0.521,1.422,0.634c0.516,0.347,0.774,0.821,0.774,1.422
					c0,0.883-0.366,1.559-1.098,2.028c-0.62,0.404-1.394,0.605-2.323,0.605c-1.023,0-1.985-0.155-2.886-0.465l0.521-1.746
					c0.667,0.329,1.342,0.493,2.028,0.493c0.845,0,1.267-0.216,1.267-0.648c0-0.281-0.249-0.53-0.746-0.746
					c-0.77-0.329-1.23-0.549-1.38-0.662c-0.498-0.357-0.746-0.854-0.746-1.493c0-0.807,0.389-1.427,1.168-1.858
					c0.638-0.347,1.394-0.521,2.267-0.521C49.297,22.579,50.146,22.724,51.076,23.015z"/>
				<path d="M56.243,22.593c1.126,0,2.022,0.281,2.689,0.845c0.713,0.61,1.07,1.464,1.07,2.562c0,1.324-0.46,2.37-1.38,3.14
					c-0.854,0.732-1.957,1.099-3.309,1.099c-1.098,0-1.98-0.272-2.647-0.817c-0.713-0.591-1.07-1.422-1.07-2.492
					c0-1.361,0.441-2.431,1.323-3.21C53.755,22.968,54.863,22.593,56.243,22.593z M57.454,25.887c0-0.459-0.108-0.835-0.324-1.126
					c-0.244-0.338-0.586-0.507-1.028-0.507c-0.601,0-1.089,0.301-1.464,0.901c-0.319,0.526-0.479,1.107-0.479,1.746
					c0,0.441,0.117,0.817,0.352,1.126c0.263,0.338,0.61,0.507,1.042,0.507c0.601,0,1.079-0.305,1.436-0.915
					C57.299,27.103,57.454,26.526,57.454,25.887z"/>
				<path d="M61.917,22.79h2.535c-0.169,0.723-0.343,1.45-0.521,2.183c-0.216,0.938-0.324,1.662-0.324,2.168
					c0,0.723,0.319,1.084,0.958,1.084c0.967,0,1.619-0.793,1.957-2.379l0.648-3.056h2.534l-1.549,7.237h-2.267l0.282-1.225
					c-0.826,0.939-1.746,1.408-2.76,1.408c-0.77,0-1.356-0.226-1.76-0.676c-0.404-0.451-0.605-1.065-0.605-1.845
					c0-0.666,0.104-1.492,0.31-2.478C61.542,24.404,61.729,23.597,61.917,22.79z"/>
				<path d="M76.828,22.748l-0.563,2.112c-0.47-0.131-0.836-0.197-1.099-0.197c-0.61,0-1.079,0.23-1.408,0.69
					c-0.235,0.329-0.427,0.845-0.577,1.548l-0.676,3.126h-2.534l1.479-7.265h2.295l-0.268,1.323
					c0.695-0.995,1.493-1.492,2.394-1.492C76.152,22.593,76.471,22.645,76.828,22.748z"/>
				<path d="M83.516,23.057l-0.577,1.746c-0.535-0.253-1.052-0.38-1.549-0.38c-0.648,0-1.183,0.188-1.605,0.563
					s-0.633,0.882-0.633,1.521c0,0.554,0.171,0.988,0.514,1.302c0.343,0.315,0.796,0.472,1.359,0.472
					c0.451,0,0.929-0.112,1.436-0.338l-0.295,1.915c-0.76,0.197-1.45,0.296-2.07,0.296c-1.061,0-1.924-0.3-2.591-0.901
					c-0.667-0.601-1-1.422-1-2.464c0-1.305,0.445-2.342,1.337-3.112c0.845-0.732,1.929-1.098,3.252-1.098
					C81.92,22.579,82.727,22.738,83.516,23.057z"/>
				<path d="M91.02,27.056h-5.195c0.093,1.042,0.713,1.562,1.858,1.562c0.807,0,1.628-0.183,2.464-0.549l-0.282,1.788
					c-0.873,0.272-1.765,0.408-2.675,0.408c-1.089,0-1.958-0.291-2.605-0.873c-0.686-0.61-1.028-1.45-1.028-2.52
					c0-1.314,0.432-2.37,1.295-3.168c0.826-0.77,1.901-1.155,3.224-1.155c0.995,0,1.762,0.272,2.302,0.817
					c0.54,0.544,0.81,1.314,0.81,2.309C91.189,26.089,91.133,26.549,91.02,27.056z M89.091,25.662
					c0.019-0.141,0.028-0.253,0.028-0.338c0-0.395-0.113-0.711-0.338-0.951c-0.225-0.239-0.535-0.359-0.929-0.359
					c-0.432,0-0.803,0.174-1.112,0.521c-0.272,0.291-0.47,0.667-0.591,1.126H89.091z"/>
				<path d="M98.539,23.015l-0.549,1.591c-0.816-0.272-1.455-0.408-1.915-0.408c-0.751,0-1.126,0.221-1.126,0.662
					c0,0.244,0.258,0.47,0.774,0.676c0.779,0.31,1.253,0.521,1.422,0.634c0.516,0.347,0.774,0.821,0.774,1.422
					c0,0.883-0.366,1.559-1.098,2.028c-0.62,0.404-1.394,0.605-2.323,0.605c-1.023,0-1.985-0.155-2.886-0.465l0.521-1.746
					c0.667,0.329,1.342,0.493,2.027,0.493c0.845,0,1.267-0.216,1.267-0.648c0-0.281-0.249-0.53-0.746-0.746
					c-0.77-0.329-1.23-0.549-1.38-0.662c-0.498-0.357-0.746-0.854-0.746-1.493c0-0.807,0.389-1.427,1.168-1.858
					c0.638-0.347,1.394-0.521,2.267-0.521C96.76,22.579,97.609,22.724,98.539,23.015z"/>
				<path d="M110.704,30.027h-2.52c0.178-0.723,0.352-1.445,0.521-2.168c0.216-0.929,0.324-1.656,0.324-2.182
					c0-0.713-0.305-1.07-0.916-1.07c-0.995,0-1.661,0.789-1.999,2.366l-0.648,3.055h-2.534l1.549-7.308h2.267l-0.281,1.295
					c0.826-0.938,1.746-1.408,2.759-1.408c0.77,0,1.356,0.228,1.76,0.683c0.403,0.456,0.605,1.073,0.605,1.852
					c0,0.667-0.108,1.488-0.324,2.464C111.079,28.413,110.891,29.22,110.704,30.027z"/>
				<path d="M119.377,30.027h-2.098l0.141-1.098c-0.563,0.835-1.399,1.253-2.506,1.253c-0.695,0-1.263-0.183-1.704-0.549
					c-0.479-0.395-0.718-0.93-0.718-1.605c0-0.966,0.48-1.67,1.44-2.112c0.725-0.338,1.675-0.507,2.852-0.507
					c0.386,0,0.771,0.019,1.157,0.056v-0.239c0.047-0.751-0.417-1.126-1.394-1.126c-0.845,0-1.633,0.183-2.366,0.549l0.296-1.69
					c0.789-0.281,1.591-0.422,2.408-0.422c0.901,0,1.647,0.16,2.239,0.479c0.75,0.394,1.126,1.004,1.126,1.83
					c0,0.629-0.127,1.493-0.38,2.591C119.579,28.656,119.414,29.52,119.377,30.027z M117.631,26.718
					c-0.169-0.019-0.408-0.028-0.718-0.028c-1.371,0-2.056,0.375-2.056,1.126c0,0.253,0.089,0.453,0.268,0.598
					c0.178,0.146,0.399,0.218,0.662,0.218c0.497,0,0.919-0.202,1.267-0.605C117.363,27.68,117.556,27.244,117.631,26.718z"/>
				<path d="M126.008,20.368l-0.521,2.421h1.788l-0.366,1.732h-1.788c-0.132,0.524-0.263,1.043-0.395,1.557
					c-0.16,0.646-0.239,1.174-0.239,1.585c0,0.496,0.263,0.744,0.789,0.744c0.216,0,0.493-0.042,0.831-0.127L125.741,30
					c-0.601,0.103-1.065,0.154-1.394,0.154c-0.723,0-1.291-0.183-1.704-0.548c-0.441-0.384-0.662-0.932-0.662-1.644
					c0-0.468,0.08-1.044,0.239-1.727c0.131-0.571,0.268-1.143,0.409-1.714h-1.479l0.366-1.732h1.478l0.366-1.718L126.008,20.368z"/>
				<path d="M128.388,22.79h2.534c-0.169,0.723-0.342,1.45-0.521,2.183c-0.216,0.938-0.324,1.662-0.324,2.168
					c0,0.723,0.319,1.084,0.958,1.084c0.967,0,1.619-0.793,1.957-2.379l0.648-3.056h2.534l-1.549,7.237h-2.267l0.281-1.225
					c-0.826,0.939-1.746,1.408-2.759,1.408c-0.77,0-1.357-0.226-1.76-0.676c-0.404-0.451-0.605-1.065-0.605-1.845
					c0-0.666,0.104-1.492,0.31-2.478C128.012,24.404,128.2,23.597,128.388,22.79z"/>
				<path d="M143.298,22.748l-0.563,2.112c-0.469-0.131-0.835-0.197-1.098-0.197c-0.61,0-1.08,0.23-1.408,0.69
					c-0.235,0.329-0.427,0.845-0.578,1.548l-0.676,3.126h-2.534l1.479-7.265h2.295l-0.268,1.323
					c0.694-0.995,1.493-1.492,2.394-1.492C142.623,22.593,142.941,22.645,143.298,22.748z"/>
				<path d="M150.549,27.056h-5.195c0.094,1.042,0.713,1.562,1.858,1.562c0.807,0,1.628-0.183,2.464-0.549l-0.281,1.788
					c-0.873,0.272-1.765,0.408-2.675,0.408c-1.089,0-1.957-0.291-2.605-0.873c-0.685-0.61-1.028-1.45-1.028-2.52
					c0-1.314,0.432-2.37,1.295-3.168c0.826-0.77,1.901-1.155,3.224-1.155c0.995,0,1.763,0.272,2.302,0.817s0.81,1.314,0.81,2.309
					C150.718,26.089,150.662,26.549,150.549,27.056z M148.621,25.662c0.019-0.141,0.028-0.253,0.028-0.338
					c0-0.395-0.112-0.711-0.338-0.951c-0.225-0.239-0.535-0.359-0.929-0.359c-0.432,0-0.802,0.174-1.112,0.521
					c-0.272,0.291-0.469,0.667-0.591,1.126H148.621z"/>
				<path d="M153.478,20.27h2.506l-2.112,9.757h-2.506L153.478,20.27z"/>
				<path d="M158.068,20.27h2.506l-2.112,9.757h-2.506L158.068,20.27z"/>
				<path d="M168.262,27.056h-5.195c0.094,1.042,0.713,1.562,1.858,1.562c0.807,0,1.628-0.183,2.464-0.549l-0.281,1.788
					c-0.873,0.272-1.765,0.408-2.675,0.408c-1.089,0-1.957-0.291-2.605-0.873c-0.685-0.61-1.028-1.45-1.028-2.52
					c0-1.314,0.432-2.37,1.295-3.168c0.826-0.77,1.901-1.155,3.224-1.155c0.995,0,1.762,0.272,2.302,0.817
					c0.54,0.544,0.81,1.314,0.81,2.309C168.431,26.089,168.375,26.549,168.262,27.056z M166.333,25.662
					c0.019-0.141,0.028-0.253,0.028-0.338c0-0.395-0.112-0.711-0.338-0.951c-0.225-0.239-0.535-0.359-0.929-0.359
					c-0.432,0-0.803,0.174-1.112,0.521c-0.272,0.291-0.47,0.667-0.591,1.126H166.333z"/>
				<path d="M175.78,23.015l-0.549,1.591c-0.817-0.272-1.455-0.408-1.915-0.408c-0.751,0-1.126,0.221-1.126,0.662
					c0,0.244,0.258,0.47,0.774,0.676c0.779,0.31,1.253,0.521,1.422,0.634c0.516,0.347,0.774,0.821,0.774,1.422
					c0,0.883-0.366,1.559-1.098,2.028c-0.62,0.404-1.394,0.605-2.323,0.605c-1.023,0-1.985-0.155-2.886-0.465l0.521-1.746
					c0.667,0.329,1.342,0.493,2.027,0.493c0.845,0,1.267-0.216,1.267-0.648c0-0.281-0.249-0.53-0.746-0.746
					c-0.77-0.329-1.229-0.549-1.38-0.662c-0.498-0.357-0.746-0.854-0.746-1.493c0-0.807,0.389-1.427,1.168-1.858
					c0.638-0.347,1.394-0.521,2.267-0.521C174.001,22.579,174.851,22.724,175.78,23.015z"/>
				<path d="M27.309,41.136h-5.196c0.094,1.042,0.713,1.563,1.858,1.563c0.808,0,1.628-0.183,2.464-0.549l-0.282,1.788
					c-0.873,0.272-1.765,0.408-2.675,0.408c-1.089,0-1.957-0.291-2.604-0.873c-0.686-0.61-1.028-1.45-1.028-2.52
					c0-1.314,0.432-2.37,1.295-3.168c0.826-0.77,1.901-1.155,3.225-1.155c0.995,0,1.762,0.272,2.302,0.816
					c0.54,0.545,0.81,1.314,0.81,2.31C27.478,40.169,27.421,40.629,27.309,41.136z M25.38,39.742
					c0.019-0.141,0.028-0.253,0.028-0.338c0-0.395-0.113-0.711-0.338-0.951c-0.226-0.239-0.535-0.359-0.93-0.359
					c-0.432,0-0.802,0.174-1.112,0.521c-0.272,0.291-0.469,0.667-0.591,1.126H25.38z"/>
				<path d="M33.222,34.448l-0.521,2.422h1.789l-0.366,1.732h-1.788c-0.132,0.524-0.263,1.043-0.395,1.557
					c-0.16,0.646-0.239,1.174-0.239,1.585c0,0.496,0.263,0.744,0.789,0.744c0.216,0,0.493-0.042,0.831-0.127l-0.366,1.719
					c-0.601,0.103-1.065,0.154-1.394,0.154c-0.723,0-1.291-0.183-1.704-0.548c-0.441-0.383-0.662-0.931-0.662-1.643
					c0-0.468,0.08-1.044,0.24-1.728c0.131-0.571,0.267-1.142,0.408-1.713h-1.479l0.366-1.732h1.479l0.366-1.718L33.222,34.448z"/>
				<path d="M40.699,34.335h6.533l-0.395,1.816h-3.942l-0.437,2.112h3.773l-0.38,1.831h-3.788l-0.845,4.013h-2.605L40.699,34.335z"
					/>
				<path d="M51.61,36.673c1.126,0,2.023,0.281,2.689,0.845c0.713,0.61,1.07,1.464,1.07,2.562c0,1.323-0.46,2.37-1.38,3.14
					c-0.854,0.732-1.957,1.098-3.309,1.098c-1.098,0-1.98-0.272-2.647-0.816c-0.713-0.591-1.07-1.422-1.07-2.492
					c0-1.361,0.441-2.431,1.324-3.21C49.123,37.048,50.23,36.673,51.61,36.673z M52.821,39.967c0-0.46-0.108-0.835-0.324-1.126
					c-0.244-0.338-0.587-0.507-1.028-0.507c-0.601,0-1.089,0.301-1.464,0.901c-0.319,0.525-0.479,1.107-0.479,1.746
					c0,0.441,0.118,0.817,0.352,1.126c0.263,0.338,0.61,0.507,1.042,0.507c0.601,0,1.08-0.305,1.436-0.915
					C52.667,41.183,52.821,40.606,52.821,39.967z"/>
				<path d="M62.888,36.828l-0.563,2.112c-0.47-0.131-0.835-0.197-1.098-0.197c-0.61,0-1.08,0.23-1.408,0.69
					c-0.235,0.329-0.427,0.845-0.577,1.549l-0.676,3.126h-2.535l1.479-7.265h2.295l-0.268,1.323
					c0.695-0.995,1.493-1.492,2.394-1.492C62.212,36.673,62.532,36.724,62.888,36.828z"/>
				<path d="M70.21,41.136h-5.196c0.094,1.042,0.713,1.563,1.859,1.563c0.807,0,1.628-0.183,2.464-0.549l-0.282,1.788
					c-0.873,0.272-1.765,0.408-2.675,0.408c-1.089,0-1.958-0.291-2.605-0.873c-0.686-0.61-1.028-1.45-1.028-2.52
					c0-1.314,0.432-2.37,1.295-3.168c0.826-0.77,1.901-1.155,3.224-1.155c0.995,0,1.762,0.272,2.302,0.816
					c0.54,0.545,0.81,1.314,0.81,2.31C70.379,40.169,70.323,40.629,70.21,41.136z M64.832,35.701l1.929-1.858h2.267l1.211,1.858
					v0.169h-1.563l-0.873-1.098l-1.225,1.098h-1.746V35.701z M68.281,39.742c0.019-0.141,0.028-0.253,0.028-0.338
					c0-0.395-0.113-0.711-0.338-0.951s-0.535-0.359-0.929-0.359c-0.432,0-0.803,0.174-1.112,0.521
					c-0.272,0.291-0.47,0.667-0.591,1.126H68.281z"/>
				<path d="M76.124,34.448l-0.521,2.422h1.788l-0.366,1.732h-1.788c-0.131,0.524-0.263,1.043-0.394,1.557
					c-0.16,0.646-0.24,1.174-0.24,1.585c0,0.496,0.263,0.744,0.789,0.744c0.216,0,0.493-0.042,0.831-0.127l-0.366,1.719
					c-0.601,0.103-1.065,0.154-1.394,0.154c-0.723,0-1.291-0.183-1.704-0.548c-0.441-0.383-0.662-0.931-0.662-1.643
					c0-0.468,0.08-1.044,0.239-1.728c0.131-0.571,0.268-1.142,0.408-1.713h-1.479l0.366-1.732h1.479l0.366-1.718L76.124,34.448z"/>
				<path d="M84.022,37.095l-0.549,1.591c-0.817-0.272-1.455-0.408-1.915-0.408c-0.751,0-1.126,0.221-1.126,0.662
					c0,0.244,0.258,0.47,0.774,0.676c0.779,0.31,1.253,0.521,1.422,0.634c0.516,0.347,0.774,0.821,0.774,1.422
					c0,0.882-0.366,1.559-1.098,2.028c-0.62,0.403-1.394,0.605-2.323,0.605c-1.023,0-1.985-0.155-2.886-0.465l0.521-1.746
					c0.667,0.329,1.342,0.493,2.027,0.493c0.845,0,1.267-0.216,1.267-0.648c0-0.282-0.249-0.53-0.746-0.746
					c-0.77-0.329-1.229-0.549-1.38-0.662c-0.498-0.357-0.746-0.854-0.746-1.493c0-0.807,0.389-1.427,1.168-1.858
					c0.638-0.347,1.394-0.521,2.267-0.521C82.243,36.659,83.093,36.804,84.022,37.095z"/>
			</g>
		</g>
		<g>
			<g>
				<g>
					<rect x="181.875" y="44.1" class="st2" width="20.166" height="12.36"/>
				</g>
			</g>
			<path class="st3" d="M191.959,44.748c-0.146,0.271-0.477,0.66-1.031,1.356c-0.643,0.802-0.533,1.874-0.225,2.507
				c0.348,0.73,0.553,1.34,0.711,1.912c0.221,0.836,0.074,1.955,0.09,1.854h-0.561c0-1.365-0.424-2.648-1.453-3.217
				c-1.461-0.812-2.904,0.594-2.445,2.053c0.242,0.766,0.674,1.025,0.793,1.025c0,0-0.199-0.844,0.412-1.275
				c0.572-0.404,1.281-0.158,1.607,0.324c0.312,0.459,0.361,1.09,0.361,1.09h-1.051v0.775h2.113c0,0-0.059,1.098-1.213,0.988
				c0,0,0.143,0.869,1.213,0.416c0,0-0.059,0.906,0.678,1.359l0,0l0,0c0.734-0.453,0.68-1.359,0.68-1.359
				c1.07,0.453,1.215-0.416,1.215-0.416c-1.16,0.109-1.215-0.988-1.215-0.988h2.111v-0.775h-1.051c0,0,0.051-0.631,0.359-1.09
				c0.328-0.483,1.039-0.729,1.611-0.324c0.609,0.432,0.412,1.275,0.412,1.275c0.121,0,0.549-0.26,0.791-1.025
				c0.459-1.459-0.984-2.865-2.445-2.053c-1.027,0.568-1.453,1.852-1.453,3.217h-0.559c0.014,0.102-0.133-1.018,0.09-1.854
				c0.156-0.572,0.361-1.182,0.709-1.912c0.309-0.633,0.42-1.705-0.225-2.507C192.437,45.408,192.107,45.018,191.959,44.748z"/>
			<g>
				<g>
					<rect x="207.916" y="44.1" class="st2" width="20.172" height="12.36"/>
				</g>
			</g>
			<path class="st3" d="M218,44.748c-0.15,0.271-0.477,0.66-1.033,1.356c-0.646,0.802-0.531,1.874-0.225,2.507
				c0.35,0.73,0.549,1.34,0.709,1.912c0.223,0.836,0.076,1.955,0.094,1.854h-0.561c0-1.365-0.424-2.648-1.453-3.217
				c-1.463-0.812-2.906,0.594-2.447,2.053c0.242,0.766,0.672,1.025,0.795,1.025c0,0-0.201-0.844,0.41-1.275
				c0.57-0.404,1.279-0.158,1.607,0.324c0.312,0.459,0.361,1.09,0.361,1.09h-1.051v0.775h2.113c0,0-0.059,1.098-1.213,0.988
				c0,0,0.139,0.869,1.213,0.416c0,0-0.059,0.906,0.68,1.359l0,0l0,0c0.731-0.453,0.674-1.359,0.674-1.359
				c1.076,0.453,1.219-0.416,1.219-0.416c-1.162,0.109-1.219-0.988-1.219-0.988h2.117v-0.775h-1.055c0,0,0.053-0.631,0.361-1.09
				c0.33-0.483,1.041-0.729,1.615-0.324c0.604,0.432,0.41,1.275,0.41,1.275c0.119,0,0.547-0.26,0.787-1.025
				c0.457-1.459-0.988-2.865-2.447-2.053c-1.025,0.568-1.451,1.852-1.451,3.217h-0.557c0.016,0.102-0.133-1.018,0.09-1.854
				c0.156-0.572,0.361-1.182,0.709-1.912c0.305-0.633,0.418-1.705-0.225-2.507C218.478,45.408,218.144,45.018,218,44.748z"/>
		</g>
		<g>
			<g>
				<g>
					<rect x="181.875" y="62.345" class="st2" width="20.166" height="12.357"/>
				</g>
			</g>
			<path class="st3" d="M191.959,62.994c-0.146,0.27-0.477,0.66-1.031,1.356c-0.643,0.803-0.533,1.871-0.225,2.508
				c0.348,0.727,0.553,1.336,0.711,1.912c0.221,0.834,0.074,1.951,0.09,1.85h-0.561c0-1.361-0.424-2.648-1.453-3.217
				c-1.461-0.812-2.904,0.598-2.445,2.057c0.242,0.762,0.674,1.023,0.793,1.023c0,0-0.199-0.844,0.412-1.277
				c0.572-0.4,1.281-0.158,1.607,0.324c0.312,0.461,0.361,1.09,0.361,1.09h-1.051v0.779l2.113-0.002c0,0-0.059,1.096-1.213,0.99
				c0,0,0.143,0.865,1.213,0.412c0,0-0.059,0.906,0.678,1.359l0,0l0,0c0.734-0.453,0.68-1.359,0.68-1.359
				c1.07,0.453,1.215-0.412,1.215-0.412c-1.16,0.105-1.215-0.99-1.215-0.99l2.111,0.002v-0.779h-1.051c0,0,0.051-0.629,0.359-1.09
				c0.328-0.482,1.039-0.725,1.611-0.324c0.609,0.434,0.412,1.277,0.412,1.277c0.121,0,0.549-0.262,0.791-1.023
				c0.459-1.459-0.984-2.869-2.445-2.057c-1.027,0.568-1.453,1.855-1.453,3.217h-0.559c0.014,0.102-0.133-1.016,0.09-1.85
				c0.156-0.576,0.361-1.186,0.709-1.912c0.309-0.637,0.42-1.705-0.225-2.508C192.437,63.654,192.107,63.263,191.959,62.994z"/>
			<g>
				<g>
					<rect x="207.916" y="62.345" class="st2" width="20.172" height="12.357"/>
				</g>
			</g>
			<path class="st3" d="M218,62.994c-0.15,0.27-0.477,0.66-1.033,1.356c-0.646,0.803-0.531,1.871-0.225,2.508
				c0.35,0.727,0.549,1.336,0.709,1.912c0.223,0.834,0.076,1.951,0.094,1.85h-0.561c0-1.361-0.424-2.648-1.453-3.217
				c-1.463-0.812-2.906,0.598-2.447,2.057c0.242,0.762,0.672,1.023,0.795,1.023c0,0-0.201-0.844,0.41-1.277
				c0.57-0.4,1.279-0.158,1.607,0.324c0.312,0.461,0.361,1.09,0.361,1.09h-1.051v0.779l2.113-0.002c0,0-0.059,1.096-1.213,0.99
				c0,0,0.139,0.865,1.213,0.412c0,0-0.059,0.906,0.68,1.359l0,0l0,0c0.731-0.453,0.674-1.359,0.674-1.359
				c1.076,0.453,1.219-0.412,1.219-0.412c-1.162,0.105-1.219-0.99-1.219-0.99l2.117,0.002v-0.779h-1.055c0,0,0.053-0.629,0.361-1.09
				c0.33-0.482,1.041-0.725,1.615-0.324c0.604,0.434,0.41,1.277,0.41,1.277c0.119,0,0.547-0.262,0.787-1.023
				c0.457-1.459-0.988-2.869-2.447-2.057c-1.025,0.568-1.451,1.855-1.451,3.217h-0.557c0.016,0.102-0.133-1.016,0.09-1.85
				c0.156-0.576,0.361-1.186,0.709-1.912c0.305-0.637,0.418-1.705-0.225-2.508C218.478,63.654,218.144,63.263,218,62.994z"/>
		</g>
	</g>
</g>
</svg>
