;TYPE=PLATED
;Layer: PTH_Through
;EasyEDA Pro v2.2.28.1, 2024-09-11 15:41:32
;Gerber Generator version 0.3
M48
METRIC,LZ,000.00000
;Hole size 1 = 0.24999 METRIC
T01C0.24999
;Hole size 2 = 0.30500 METRIC
T02C0.30500
;Hole size 3 = 1.02000 METRIC
T03C1.02000
;Hole size 4 = 1.02001 METRIC
T04C1.02001
;Hole size 5 = 1.10002 METRIC
T05C1.10002
;Hole size 6 = 1.20000 METRIC
T06C1.20000
%
G05
G90
T01
X-1.49974Y-15.4639
X-1.49974Y-16.86395
X-0.09969Y-16.86395
X-0.09969Y-15.4639
X-0.79972Y-14.76388
X-0.79972Y-16.16393
X-0.79972Y-17.56397
X-2.89979Y-16.86395
X-2.89979Y-15.4639
X-2.19977Y-14.76388
X-2.19977Y-16.16393
X-2.19977Y-17.56397
T02
X-11.049Y-21.844
X-10.287Y-21.209
X-4.953Y-19.05
X-4.953Y-20.32
X-4.953Y-21.59
X-4.953Y-22.86
X-4.953Y-24.003
X-4.953Y-25.146
X3.175Y-22.987
X3.937Y-22.987
X4.699Y-22.987
X5.461Y-22.987
X6.223Y-22.987
X6.985Y-22.987
X-7.747Y-8.509
X-10.32967Y-8.44436
X10.16623Y-8.44436
X7.47142Y-8.44436
X8.89Y-7.366
X-23.622Y-19.685
X-27.559Y-19.558
X-23.622Y-22.098
X-27.559Y-22.225
X-25.781Y-22.098
X-18.034Y-20.574
X-19.177Y-19.939
X-18.415Y-19.939
X-18.796Y-20.574
X-22.86Y-20.955
X-16.637Y-8.636
X-16.637Y-10.668
X-24.00097Y-2.91443
X-22.606Y-9.144
X-22.86Y-13.97
X-19.558Y-20.574
X-35.179Y-25.654
X-14.478Y-16.891
X17.40103Y-2.85701
X13.208Y-20.828
X22.733Y-11.176
X21.463Y-9.144
X11.938Y-9.017
X25.781Y-3.429
X11.938Y-15.113
X15.24Y-11.176
X11.811Y-13.716
X-27.94Y-25.527
X-28.54867Y-24.91833
X-27.813Y-24.765
X-14.351Y-14.097
X-11.811Y-14.097
X-17.399Y-27.686
X-17.78Y-30.988
X-25.781Y-19.685
X-16.637Y-16.764
X20.701Y-17.399
T03
X-36.195Y-12.319
X-33.655Y-12.319
X-28.194Y-12.319
X-25.654Y-12.319
T04
X-21.209Y-31.623
X-23.749Y-31.623
X-26.289Y-31.623
X-28.829Y-31.623
X37.211Y-18.288
X34.671Y-18.288
X32.131Y-18.288
X29.591Y-18.288
X37.211Y-5.461
X34.671Y-5.461
X32.131Y-5.461
X29.591Y-5.461
T05
X-33.02Y-48.26
X-33.02Y-50.8
X-33.02Y-53.34
X-33.02Y-55.88
X-33.02Y-58.42
X-33.02Y-60.96
X-33.02Y-63.5
X-33.02Y-66.04
X-33.02Y-68.58
X-33.02Y-71.12
X-33.02Y-73.66
X-33.02Y-76.2
X-33.02Y-78.74
X-33.02Y-81.28
X-33.02Y-83.82
X-33.02Y-86.36
X-33.02Y-88.9
X-33.02Y-91.44
X33.02Y-48.26
X33.02Y-50.8
X33.02Y-53.34
X33.02Y-55.88
X33.02Y-58.42
X33.02Y-60.96
X33.02Y-63.5
X33.02Y-66.04
X33.02Y-68.58
X33.02Y-71.12
X33.02Y-73.66
X33.02Y-76.2
X33.02Y-78.74
X33.02Y-81.28
X33.02Y-83.82
X33.02Y-86.36
X33.02Y-88.9
X33.02Y-91.44
T06
X30.92449Y-33.02
X33.46449Y-33.02
X36.00449Y-33.02
M30