G04 Layer: BottomLayer*
G04 EasyEDA Pro v2.2.28.1, 2024-09-11 15:41:32*
G04 Gerber Generator version 0.3*
G04 Scale: 100 percent, Rotated: No, Reflected: No*
G04 Dimensions in millimeters*
G04 Leading zeros omitted, absolute positions, 3 integers and 5 decimals*
%FSLAX35Y35*%
%MOMM*%
%ADD10C,0.2032*%
%ADD11C,0.254*%
%ADD12C,1.524*%
%ADD13R,1.524X1.524*%
%ADD14C,2.0*%
%ADD15R,1.55X1.55*%
%ADD16C,1.5574*%
%ADD17C,1.55*%
%ADD18R,1.7X1.7*%
%ADD19C,1.7*%
%ADD20C,0.61*%
%ADD21C,0.4*%
%ADD22C,0.508*%
G75*


G04 Copper Start*
G36*
G01X1202149Y-717424D02*
G01X1710448Y-35560D01*
G01X3939435Y-35560D01*
G01X3939435Y-1046750D01*
G03X3939540Y-1053792I235814J0D01*
G01X3939540Y-2439706D01*
G03X3939435Y-2446747I235708J-7042D01*
G01X3939435Y-6697253D01*
G03X3939540Y-6704294I235814J0D01*
G01X3939540Y-8090208D01*
G03X3939435Y-8097250I235708J-7042D01*
G01X3939435Y-9797246D01*
G02X3906536Y-9895840I-164186J0D01*
G01X-3888740Y-9895840D01*
G01X-3888740Y-35560D01*
G01X-1686273Y-35560D01*
G01X-1227841Y-717013D01*
G03X-1219200Y-721614I8641J5813D01*
G01X1193800Y-721614D01*
G03X1202149Y-717424I0J10414D01*
G37*
%LPC*%
G36*
G01X-3542000Y-1345214D02*
G03X-3506186Y-1309400I0J35814D01*
G01X-3506186Y-1154400D01*
G03X-3542000Y-1118586I-35814J0D01*
G01X-3697000Y-1118586D01*
G03X-3732814Y-1154400I0J-35814D01*
G01X-3732814Y-1309400D01*
G03X-3697000Y-1345214I35814J0D01*
G01X-3542000Y-1345214D01*
G37*
G36*
G01X-3478814Y-1231900D02*
G03X-3252186Y-1231900I113314J0D01*
G03X-3478814Y-1231900I-113314J0D01*
G37*
G36*
G01X-3302000Y-8515186D02*
G03X-3302000Y-8756814I0J-120814D01*
G03X-3302000Y-8515186I0J120814D01*
G37*
G36*
G01X-3302000Y-8261186D02*
G03X-3302000Y-8502814I0J-120814D01*
G03X-3302000Y-8261186I0J120814D01*
G37*
G36*
G01X-3302000Y-8007186D02*
G03X-3302000Y-8248814I0J-120814D01*
G03X-3302000Y-8007186I0J120814D01*
G37*
G36*
G01X-3302000Y-9023186D02*
G03X-3302000Y-9264814I0J-120814D01*
G03X-3302000Y-9023186I0J120814D01*
G37*
G36*
G01X-3302000Y-8769186D02*
G03X-3302000Y-9010814I0J-120814D01*
G03X-3302000Y-8769186I0J120814D01*
G37*
G36*
G01X-3302000Y-7753186D02*
G03X-3302000Y-7994814I0J-120814D01*
G03X-3302000Y-7753186I0J120814D01*
G37*
G36*
G01X-3422814Y-4911000D02*
G01X-3422765Y-4912862D01*
G01X-3416126Y-5040362D01*
G03X-3302000Y-5200814I114126J-39638D01*
G03X-3187874Y-5040362I0J120814D01*
G01X-3181235Y-4912862D01*
G01X-3181186Y-4911000D01*
G01X-3181186Y-4741000D01*
G01X-3181213Y-4739623D01*
G01X-3189986Y-4511711D01*
G01X-3189986Y-3107098D01*
G01X-2714794Y-2631906D01*
G03X-2683937Y-2531886I-79206J79206D01*
G03X-2837868Y-2379819I-97363J55386D01*
G01X-2854867Y-2379819D01*
G03X-2950259Y-2550548I0J-112014D01*
G01X-3381206Y-2981494D01*
G03X-3414014Y-3060700I79206J-79206D01*
G01X-3414014Y-4511711D01*
G01X-3422787Y-4739623D01*
G01X-3422814Y-4741000D01*
G01X-3422814Y-4911000D01*
G37*
G36*
G01X-556514Y-6172244D02*
G01X-1943056Y-7558786D01*
G01X-3150057Y-7558786D01*
G01X-3226790Y-7525451D01*
G03X-3422814Y-7620000I-75210J-94549D01*
G03X-3226790Y-7714549I120814J0D01*
G01X-3150057Y-7681214D01*
G01X-1917700Y-7681214D01*
G03X-1874415Y-7663285I0J61214D01*
G01X-452015Y-6240885D01*
G03X-434086Y-6197600I-43285J43285D01*
G01X-434086Y-2540103D01*
G03X-461663Y-2457450I-61214J25503D01*
G03X-461663Y-2343150I-33637J57150D01*
G03X-429292Y-2279634I-33637J57150D01*
G03X-473205Y-2223475I-66008J-6366D01*
G01X-470048Y-2220318D01*
G03X-473205Y-2096475I-25252J61318D01*
G01X-470048Y-2093318D01*
G03X-473205Y-1969475I-25252J61318D01*
G01X-470048Y-1966318D01*
G03X-448409Y-1858109I-25252J61318D01*
G03X-556618Y-1879748I-46891J-46891D01*
G01X-869950Y-2193080D01*
G01X-967382Y-2095648D01*
G03X-1040554Y-2055654I-61318J-25252D01*
G03X-1094982Y-2118832I11854J-65246D01*
G03X-1168805Y-2166687I-9918J-65568D01*
G03X-1130152Y-2245718I63905J-17713D01*
G01X-1039114Y-2336756D01*
G01X-1039114Y-5003844D01*
G01X-1816056Y-5780786D01*
G01X-3150057Y-5780786D01*
G01X-3226790Y-5747451D01*
G03X-3422814Y-5842000I-75210J-94549D01*
G03X-3226790Y-5936549I120814J0D01*
G01X-3150057Y-5903214D01*
G01X-1842162Y-5903214D01*
G01X-1973734Y-6034786D01*
G01X-3150057Y-6034786D01*
G01X-3226790Y-6001451D01*
G03X-3422814Y-6096000I-75210J-94549D01*
G03X-3226790Y-6190549I120814J0D01*
G01X-3150057Y-6157214D01*
G01X-2002768Y-6157214D01*
G01X-2134340Y-6288786D01*
G01X-3150057Y-6288786D01*
G01X-3226790Y-6255451D01*
G03X-3422814Y-6350000I-75210J-94549D01*
G03X-3226790Y-6444549I120814J0D01*
G01X-3150057Y-6411214D01*
G01X-2163373Y-6411214D01*
G01X-2294945Y-6542786D01*
G01X-3150057Y-6542786D01*
G01X-3226790Y-6509451D01*
G03X-3422814Y-6604000I-75210J-94549D01*
G03X-3226790Y-6698549I120814J0D01*
G01X-3150057Y-6665214D01*
G01X-2323978Y-6665214D01*
G01X-2455550Y-6796786D01*
G01X-3150057Y-6796786D01*
G01X-3226790Y-6763451D01*
G03X-3422814Y-6858000I-75210J-94549D01*
G03X-3226790Y-6952549I120814J0D01*
G01X-3150057Y-6919214D01*
G01X-2484584Y-6919214D01*
G01X-2616156Y-7050786D01*
G01X-3150057Y-7050786D01*
G01X-3226790Y-7017451D01*
G03X-3422814Y-7112000I-75210J-94549D01*
G03X-3226790Y-7206549I120814J0D01*
G01X-3150057Y-7173214D01*
G01X-2645189Y-7173214D01*
G01X-2776761Y-7304786D01*
G01X-3150057Y-7304786D01*
G01X-3226790Y-7271451D01*
G03X-3422814Y-7366000I-75210J-94549D01*
G03X-3226790Y-7460549I120814J0D01*
G01X-3150057Y-7427214D01*
G01X-2751405Y-7427214D01*
G03X-2708120Y-7409285I0J61214D01*
G01X-556514Y-5257678D01*
G01X-556514Y-6172244D01*
G37*
G36*
G01X-3302000Y-5467186D02*
G03X-3302000Y-5708814I0J-120814D01*
G03X-3302000Y-5467186I0J120814D01*
G37*
G36*
G01X-3302000Y-5213186D02*
G03X-3302000Y-5454814I0J-120814D01*
G03X-3302000Y-5213186I0J120814D01*
G37*
G36*
G01X-2806700Y-3274314D02*
G03X-2770886Y-3238500I0J35814D01*
G01X-2770886Y-3086100D01*
G03X-2806700Y-3050286I-35814J0D01*
G01X-2959100Y-3050286D01*
G03X-2994914Y-3086100I0J-35814D01*
G01X-2994914Y-3238500D01*
G03X-2959100Y-3274314I35814J0D01*
G01X-2806700Y-3274314D01*
G37*
G36*
G01X-2741900Y-1345214D02*
G03X-2706086Y-1309400I0J35814D01*
G01X-2706086Y-1154400D01*
G03X-2741900Y-1118586I-35814J0D01*
G01X-2896900Y-1118586D01*
G03X-2932714Y-1154400I0J-35814D01*
G01X-2932714Y-1309400D01*
G03X-2896900Y-1345214I35814J0D01*
G01X-2741900Y-1345214D01*
G37*
G36*
G01X-2740914Y-3162300D02*
G03X-2516886Y-3162300I112014J0D01*
G03X-2740914Y-3162300I-112014J0D01*
G37*
G36*
G01X-2678714Y-1231900D02*
G03X-2452086Y-1231900I113314J0D01*
G03X-2678714Y-1231900I-113314J0D01*
G37*
G36*
G01X-2486914Y-3162300D02*
G03X-2262886Y-3162300I112014J0D01*
G03X-2486914Y-3162300I-112014J0D01*
G37*
G36*
G01X-2232914Y-3162300D02*
G03X-2008886Y-3162300I112014J0D01*
G03X-2232914Y-3162300I-112014J0D01*
G37*
G36*
G01X-1529351Y-992886D02*
G03X-1608557Y-1025694I0J-112014D01*
G01X-1920706Y-1337843D01*
G03X-1953514Y-1417049I79206J-79206D01*
G01X-1953514Y-1887766D01*
G03X-2027224Y-1970412I35814J-106134D01*
G01X-2035006Y-1978194D01*
G03X-1917700Y-2162735I79206J-79206D01*
G03X-1879600Y-2169414I38100J105335D01*
G01X-1803400Y-2169414D01*
G03X-1691386Y-2057400I0J112014D01*
G01X-1691386Y-2032000D01*
G03X-1724194Y-1952794I-112014J0D01*
G01X-1729486Y-1947502D01*
G01X-1729486Y-1463447D01*
G01X-1482953Y-1216914D01*
G01X1472194Y-1216914D01*
G03X1524000Y-1229614I51806J99314D01*
G01X2705100Y-1229614D01*
G03X2784306Y-1196806I0J112014D01*
G01X3038306Y-942806D01*
G03X3071114Y-863600I-79206J79206D01*
G01X3071114Y-469900D01*
G03X3035300Y-434086I-35814J0D01*
G01X2882900Y-434086D01*
G03X2847086Y-469900I0J-35814D01*
G01X2847086Y-817202D01*
G01X2658702Y-1005586D01*
G01X1563106Y-1005586D01*
G03X1511300Y-992886I-51806J-99314D01*
G01X-1529351Y-992886D01*
G37*
G36*
G01X-1801114Y-3035344D02*
G01X-1803252Y-3037482D01*
G03X-1824891Y-3145691I25252J-61318D01*
G03X-1716682Y-3124052I46891J46891D01*
G01X-1696615Y-3103985D01*
G03X-1678686Y-3060700I-43285J43285D01*
G01X-1678686Y-2794103D01*
G03X-1739900Y-2702286I-61214J25503D01*
G03X-1801114Y-2794103I0J-66314D01*
G01X-1801114Y-3035344D01*
G37*
G36*
G01X-1501414Y-1409700D02*
G03X-1409597Y-1470914I66314J0D01*
G01X-1206603Y-1470914D01*
G03X-1114786Y-1409700I25503J61214D01*
G03X-1206603Y-1348486I-66314J0D01*
G01X-1409597Y-1348486D01*
G03X-1501414Y-1409700I-25503J-61214D01*
G37*
G36*
G01X256286Y-4851400D02*
G03X274215Y-4894685I61214J0D01*
G01X2026815Y-6647285D01*
G03X2070100Y-6665214I43285J43285D01*
G01X3150057Y-6665214D01*
G01X3226790Y-6698549D01*
G03X3422814Y-6604000I75210J94549D01*
G03X3226790Y-6509451I-120814J0D01*
G01X3150057Y-6542786D01*
G01X2095456Y-6542786D01*
G01X1963884Y-6411214D01*
G01X3150057Y-6411214D01*
G01X3226790Y-6444549D01*
G03X3422814Y-6350000I75210J94549D01*
G03X3226790Y-6255451I-120814J0D01*
G01X3150057Y-6288786D01*
G01X1934850Y-6288786D01*
G01X1803278Y-6157214D01*
G01X3150057Y-6157214D01*
G01X3226790Y-6190549D01*
G03X3422814Y-6096000I75210J94549D01*
G03X3226790Y-6001451I-120814J0D01*
G01X3150057Y-6034786D01*
G01X1774245Y-6034786D01*
G01X1642673Y-5903214D01*
G01X3150057Y-5903214D01*
G01X3226790Y-5936549D01*
G03X3422814Y-5842000I75210J94549D01*
G03X3226790Y-5747451I-120814J0D01*
G01X3150057Y-5780786D01*
G01X1613640Y-5780786D01*
G01X1482068Y-5649214D01*
G01X3150057Y-5649214D01*
G01X3226790Y-5682549D01*
G03X3422814Y-5588000I75210J94549D01*
G03X3226790Y-5493451I-120814J0D01*
G01X3150057Y-5526786D01*
G01X1453034Y-5526786D01*
G01X1359562Y-5433314D01*
G01X3169121Y-5433314D01*
G01X3272820Y-5451237D01*
G03X3412460Y-5285067I29180J117237D01*
G03X3195563Y-5276841I-110460J-48933D01*
G01X3137058Y-5310886D01*
G01X1330529Y-5310886D01*
G01X759714Y-4740071D01*
G01X759714Y-2324203D01*
G03X740030Y-2247001I-61214J25503D01*
G03X660400Y-2244423I-41530J-51699D01*
G03X584200Y-2244423I-38100J-54277D01*
G03X508000Y-2244423I-38100J-54277D01*
G03X431800Y-2244423I-38100J-54277D01*
G03X355600Y-2244423I-38100J-54277D01*
G03X275970Y-2247001I-38100J-54277D01*
G03X256286Y-2324203I41530J-51699D01*
G01X256286Y-4851400D01*
G37*
G36*
G01X2941384Y-1643654D02*
G01X3014516Y-1716786D01*
G01X2882900Y-1716786D01*
G03X2847086Y-1752600I0J-35814D01*
G01X2847086Y-1905000D01*
G03X2882900Y-1940814I35814J0D01*
G01X3035300Y-1940814D01*
G03X3071114Y-1905000I0J35814D01*
G01X3071114Y-1773384D01*
G01X3073326Y-1775596D01*
G01X3101931Y-1842530D01*
G03X3292306Y-1908006I111169J13730D01*
G03X3226830Y-1717631I-79206J79206D01*
G01X3159896Y-1689026D01*
G01X3043384Y-1572514D01*
G01X3124244Y-1572514D01*
G01X3327326Y-1775596D01*
G01X3355931Y-1842530D01*
G03X3546306Y-1908006I111169J13730D01*
G03X3480830Y-1717631I-79206J79206D01*
G01X3413896Y-1689026D01*
G01X3192885Y-1468015D01*
G03X3149600Y-1450086I-43285J-43285D01*
G01X1219303Y-1450086D01*
G03X1194282Y-1444988I-25503J-61214D01*
G01X1206352Y-1432918D01*
G03X1227991Y-1324709I-25252J61318D01*
G03X1119782Y-1346348I-46891J-46891D01*
G01X1048915Y-1417215D01*
G03X1030986Y-1460500I43285J-43285D01*
G01X1030986Y-1531640D01*
G03X1048915Y-1574925I61214J0D01*
G01X1099715Y-1625725D01*
G03X1143000Y-1643654I43285J43285D01*
G01X2941384Y-1643654D01*
G37*
G36*
G01X1219303Y-840486D02*
G03X1127486Y-901700I-25503J-61214D01*
G03X1219303Y-962914I66314J0D01*
G01X2019300Y-962914D01*
G03X2062585Y-944985I0J61214D01*
G01X2603352Y-404218D01*
G03X2624991Y-296009I-25252J61318D01*
G03X2516782Y-317648I-46891J-46891D01*
G01X1993944Y-840486D01*
G01X1219303Y-840486D01*
G37*
G36*
G01X1273909Y-2035909D02*
G03X1295548Y-2144118I46891J-46891D01*
G01X2115715Y-2964285D01*
G03X2159000Y-2982214I43285J43285D01*
G01X2940093Y-2982214D01*
G01X3129106Y-3171227D01*
G03X2971216Y-3363221I-36657J-130773D01*
G03X3219449Y-3350129I121233J61221D01*
G03X3346449Y-3437814I127000J48129D01*
G03X3473449Y-3350129I0J135814D01*
G03X3736263Y-3302000I127000J48129D01*
G03X3473449Y-3253871I-135814J0D01*
G03X3360305Y-3166895I-127000J-48129D01*
G01X3263789Y-3132770D01*
G01X3008734Y-2877715D01*
G03X2965449Y-2859786I-43285J-43285D01*
G01X2184356Y-2859786D01*
G01X1382118Y-2057548D01*
G03X1273909Y-2035909I-61318J-25252D01*
G37*
G36*
G01X3101086Y-546100D02*
G03X3325114Y-546100I112014J0D01*
G03X3101086Y-546100I-112014J0D01*
G37*
G36*
G01X3302000Y-7753186D02*
G03X3302000Y-7994814I0J-120814D01*
G03X3302000Y-7753186I0J120814D01*
G37*
G36*
G01X3302000Y-8007186D02*
G03X3302000Y-8248814I0J-120814D01*
G03X3302000Y-8007186I0J120814D01*
G37*
G36*
G01X3302000Y-8261186D02*
G03X3302000Y-8502814I0J-120814D01*
G03X3302000Y-8261186I0J120814D01*
G37*
G36*
G01X3302000Y-8515186D02*
G03X3302000Y-8756814I0J-120814D01*
G03X3302000Y-8515186I0J120814D01*
G37*
G36*
G01X3302000Y-8769186D02*
G03X3302000Y-9010814I0J-120814D01*
G03X3302000Y-8769186I0J120814D01*
G37*
G36*
G01X3302000Y-9023186D02*
G03X3302000Y-9264814I0J-120814D01*
G03X3302000Y-9023186I0J120814D01*
G37*
G36*
G01X3302000Y-6737186D02*
G03X3302000Y-6978814I0J-120814D01*
G03X3302000Y-6737186I0J120814D01*
G37*
G36*
G01X3302000Y-6991186D02*
G03X3302000Y-7232814I0J-120814D01*
G03X3302000Y-6991186I0J120814D01*
G37*
G36*
G01X3302000Y-7245186D02*
G03X3302000Y-7486814I0J-120814D01*
G03X3302000Y-7245186I0J120814D01*
G37*
G36*
G01X3302000Y-7499186D02*
G03X3302000Y-7740814I0J-120814D01*
G03X3302000Y-7499186I0J120814D01*
G37*
G36*
G01X3302000Y-4959186D02*
G03X3302000Y-5200814I0J-120814D01*
G03X3302000Y-4959186I0J120814D01*
G37*
G36*
G01X3181186Y-4911000D02*
G03X3217000Y-4946814I35814J0D01*
G01X3387000Y-4946814D01*
G03X3422814Y-4911000I0J35814D01*
G01X3422814Y-4741000D01*
G03X3387000Y-4705186I-35814J0D01*
G01X3217000Y-4705186D01*
G03X3181186Y-4741000I0J-35814D01*
G01X3181186Y-4911000D01*
G37*
G36*
G01X3355086Y-546100D02*
G03X3579114Y-546100I112014J0D01*
G03X3355086Y-546100I-112014J0D01*
G37*
G36*
G01X3609086Y-546100D02*
G03X3833114Y-546100I112014J0D01*
G03X3609086Y-546100I-112014J0D01*
G37*
G36*
G01X3609086Y-1828800D02*
G03X3833114Y-1828800I112014J0D01*
G03X3609086Y-1828800I-112014J0D01*
G37*
%LPD*%
G54D10*
G01X1202149Y-717424D02*
G01X1710448Y-35560D01*
G01X3939435Y-35560D01*
G01X3939435Y-1046750D01*
G03X3939540Y-1053792I235814J0D01*
G01X3939540Y-2439706D01*
G03X3939435Y-2446747I235708J-7042D01*
G01X3939435Y-6697253D01*
G03X3939540Y-6704294I235814J0D01*
G01X3939540Y-8090208D01*
G03X3939435Y-8097250I235708J-7042D01*
G01X3939435Y-9797246D01*
G02X3906536Y-9895840I-164186J0D01*
G01X-3888740Y-9895840D01*
G01X-3888740Y-35560D01*
G01X-1686273Y-35560D01*
G01X-1227841Y-717013D01*
G03X-1219200Y-721614I8641J5813D01*
G01X1193800Y-721614D01*
G03X1202149Y-717424I0J10414D01*
G01X-3542000Y-1345214D02*
G03X-3506186Y-1309400I0J35814D01*
G01X-3506186Y-1154400D01*
G03X-3542000Y-1118586I-35814J0D01*
G01X-3697000Y-1118586D01*
G03X-3732814Y-1154400I0J-35814D01*
G01X-3732814Y-1309400D01*
G03X-3697000Y-1345214I35814J0D01*
G01X-3542000Y-1345214D01*
G01X-3478814Y-1231900D02*
G03X-3252186Y-1231900I113314J0D01*
G03X-3478814Y-1231900I-113314J0D01*
G01X-3302000Y-8515186D02*
G03X-3302000Y-8756814I0J-120814D01*
G03X-3302000Y-8515186I0J120814D01*
G01X-3302000Y-8261186D02*
G03X-3302000Y-8502814I0J-120814D01*
G03X-3302000Y-8261186I0J120814D01*
G01X-3302000Y-8007186D02*
G03X-3302000Y-8248814I0J-120814D01*
G03X-3302000Y-8007186I0J120814D01*
G01X-3302000Y-9023186D02*
G03X-3302000Y-9264814I0J-120814D01*
G03X-3302000Y-9023186I0J120814D01*
G01X-3302000Y-8769186D02*
G03X-3302000Y-9010814I0J-120814D01*
G03X-3302000Y-8769186I0J120814D01*
G01X-3302000Y-7753186D02*
G03X-3302000Y-7994814I0J-120814D01*
G03X-3302000Y-7753186I0J120814D01*
G01X-3422814Y-4911000D02*
G01X-3422765Y-4912862D01*
G01X-3416126Y-5040362D01*
G03X-3302000Y-5200814I114126J-39638D01*
G03X-3187874Y-5040362I0J120814D01*
G01X-3181235Y-4912862D01*
G01X-3181186Y-4911000D01*
G01X-3181186Y-4741000D01*
G01X-3181213Y-4739623D01*
G01X-3189986Y-4511711D01*
G01X-3189986Y-3107098D01*
G01X-2714794Y-2631906D01*
G03X-2683937Y-2531886I-79206J79206D01*
G03X-2837868Y-2379819I-97363J55386D01*
G01X-2854867Y-2379819D01*
G03X-2950259Y-2550548I0J-112014D01*
G01X-3381206Y-2981494D01*
G03X-3414014Y-3060700I79206J-79206D01*
G01X-3414014Y-4511711D01*
G01X-3422787Y-4739623D01*
G01X-3422814Y-4741000D01*
G01X-3422814Y-4911000D01*
G01X-556514Y-6172244D02*
G01X-1943056Y-7558786D01*
G01X-3150057Y-7558786D01*
G01X-3226790Y-7525451D01*
G03X-3422814Y-7620000I-75210J-94549D01*
G03X-3226790Y-7714549I120814J0D01*
G01X-3150057Y-7681214D01*
G01X-1917700Y-7681214D01*
G03X-1874415Y-7663285I0J61214D01*
G01X-452015Y-6240885D01*
G03X-434086Y-6197600I-43285J43285D01*
G01X-434086Y-2540103D01*
G03X-461663Y-2457450I-61214J25503D01*
G03X-461663Y-2343150I-33637J57150D01*
G03X-429292Y-2279634I-33637J57150D01*
G03X-473205Y-2223475I-66008J-6366D01*
G01X-470048Y-2220318D01*
G03X-473205Y-2096475I-25252J61318D01*
G01X-470048Y-2093318D01*
G03X-473205Y-1969475I-25252J61318D01*
G01X-470048Y-1966318D01*
G03X-448409Y-1858109I-25252J61318D01*
G03X-556618Y-1879748I-46891J-46891D01*
G01X-869950Y-2193080D01*
G01X-967382Y-2095648D01*
G03X-1040554Y-2055654I-61318J-25252D01*
G03X-1094982Y-2118832I11854J-65246D01*
G03X-1168805Y-2166687I-9918J-65568D01*
G03X-1130152Y-2245718I63905J-17713D01*
G01X-1039114Y-2336756D01*
G01X-1039114Y-5003844D01*
G01X-1816056Y-5780786D01*
G01X-3150057Y-5780786D01*
G01X-3226790Y-5747451D01*
G03X-3422814Y-5842000I-75210J-94549D01*
G03X-3226790Y-5936549I120814J0D01*
G01X-3150057Y-5903214D01*
G01X-1842162Y-5903214D01*
G01X-1973734Y-6034786D01*
G01X-3150057Y-6034786D01*
G01X-3226790Y-6001451D01*
G03X-3422814Y-6096000I-75210J-94549D01*
G03X-3226790Y-6190549I120814J0D01*
G01X-3150057Y-6157214D01*
G01X-2002768Y-6157214D01*
G01X-2134340Y-6288786D01*
G01X-3150057Y-6288786D01*
G01X-3226790Y-6255451D01*
G03X-3422814Y-6350000I-75210J-94549D01*
G03X-3226790Y-6444549I120814J0D01*
G01X-3150057Y-6411214D01*
G01X-2163373Y-6411214D01*
G01X-2294945Y-6542786D01*
G01X-3150057Y-6542786D01*
G01X-3226790Y-6509451D01*
G03X-3422814Y-6604000I-75210J-94549D01*
G03X-3226790Y-6698549I120814J0D01*
G01X-3150057Y-6665214D01*
G01X-2323978Y-6665214D01*
G01X-2455550Y-6796786D01*
G01X-3150057Y-6796786D01*
G01X-3226790Y-6763451D01*
G03X-3422814Y-6858000I-75210J-94549D01*
G03X-3226790Y-6952549I120814J0D01*
G01X-3150057Y-6919214D01*
G01X-2484584Y-6919214D01*
G01X-2616156Y-7050786D01*
G01X-3150057Y-7050786D01*
G01X-3226790Y-7017451D01*
G03X-3422814Y-7112000I-75210J-94549D01*
G03X-3226790Y-7206549I120814J0D01*
G01X-3150057Y-7173214D01*
G01X-2645189Y-7173214D01*
G01X-2776761Y-7304786D01*
G01X-3150057Y-7304786D01*
G01X-3226790Y-7271451D01*
G03X-3422814Y-7366000I-75210J-94549D01*
G03X-3226790Y-7460549I120814J0D01*
G01X-3150057Y-7427214D01*
G01X-2751405Y-7427214D01*
G03X-2708120Y-7409285I0J61214D01*
G01X-556514Y-5257678D01*
G01X-556514Y-6172244D01*
G01X-3302000Y-5467186D02*
G03X-3302000Y-5708814I0J-120814D01*
G03X-3302000Y-5467186I0J120814D01*
G01X-3302000Y-5213186D02*
G03X-3302000Y-5454814I0J-120814D01*
G03X-3302000Y-5213186I0J120814D01*
G01X-2806700Y-3274314D02*
G03X-2770886Y-3238500I0J35814D01*
G01X-2770886Y-3086100D01*
G03X-2806700Y-3050286I-35814J0D01*
G01X-2959100Y-3050286D01*
G03X-2994914Y-3086100I0J-35814D01*
G01X-2994914Y-3238500D01*
G03X-2959100Y-3274314I35814J0D01*
G01X-2806700Y-3274314D01*
G01X-2741900Y-1345214D02*
G03X-2706086Y-1309400I0J35814D01*
G01X-2706086Y-1154400D01*
G03X-2741900Y-1118586I-35814J0D01*
G01X-2896900Y-1118586D01*
G03X-2932714Y-1154400I0J-35814D01*
G01X-2932714Y-1309400D01*
G03X-2896900Y-1345214I35814J0D01*
G01X-2741900Y-1345214D01*
G01X-2740914Y-3162300D02*
G03X-2516886Y-3162300I112014J0D01*
G03X-2740914Y-3162300I-112014J0D01*
G01X-2678714Y-1231900D02*
G03X-2452086Y-1231900I113314J0D01*
G03X-2678714Y-1231900I-113314J0D01*
G01X-2486914Y-3162300D02*
G03X-2262886Y-3162300I112014J0D01*
G03X-2486914Y-3162300I-112014J0D01*
G01X-2232914Y-3162300D02*
G03X-2008886Y-3162300I112014J0D01*
G03X-2232914Y-3162300I-112014J0D01*
G01X-1529351Y-992886D02*
G03X-1608557Y-1025694I0J-112014D01*
G01X-1920706Y-1337843D01*
G03X-1953514Y-1417049I79206J-79206D01*
G01X-1953514Y-1887766D01*
G03X-2027224Y-1970412I35814J-106134D01*
G01X-2035006Y-1978194D01*
G03X-1917700Y-2162735I79206J-79206D01*
G03X-1879600Y-2169414I38100J105335D01*
G01X-1803400Y-2169414D01*
G03X-1691386Y-2057400I0J112014D01*
G01X-1691386Y-2032000D01*
G03X-1724194Y-1952794I-112014J0D01*
G01X-1729486Y-1947502D01*
G01X-1729486Y-1463447D01*
G01X-1482953Y-1216914D01*
G01X1472194Y-1216914D01*
G03X1524000Y-1229614I51806J99314D01*
G01X2705100Y-1229614D01*
G03X2784306Y-1196806I0J112014D01*
G01X3038306Y-942806D01*
G03X3071114Y-863600I-79206J79206D01*
G01X3071114Y-469900D01*
G03X3035300Y-434086I-35814J0D01*
G01X2882900Y-434086D01*
G03X2847086Y-469900I0J-35814D01*
G01X2847086Y-817202D01*
G01X2658702Y-1005586D01*
G01X1563106Y-1005586D01*
G03X1511300Y-992886I-51806J-99314D01*
G01X-1529351Y-992886D01*
G01X-1801114Y-3035344D02*
G01X-1803252Y-3037482D01*
G03X-1824891Y-3145691I25252J-61318D01*
G03X-1716682Y-3124052I46891J46891D01*
G01X-1696615Y-3103985D01*
G03X-1678686Y-3060700I-43285J43285D01*
G01X-1678686Y-2794103D01*
G03X-1739900Y-2702286I-61214J25503D01*
G03X-1801114Y-2794103I0J-66314D01*
G01X-1801114Y-3035344D01*
G01X-1501414Y-1409700D02*
G03X-1409597Y-1470914I66314J0D01*
G01X-1206603Y-1470914D01*
G03X-1114786Y-1409700I25503J61214D01*
G03X-1206603Y-1348486I-66314J0D01*
G01X-1409597Y-1348486D01*
G03X-1501414Y-1409700I-25503J-61214D01*
G01X256286Y-4851400D02*
G03X274215Y-4894685I61214J0D01*
G01X2026815Y-6647285D01*
G03X2070100Y-6665214I43285J43285D01*
G01X3150057Y-6665214D01*
G01X3226790Y-6698549D01*
G03X3422814Y-6604000I75210J94549D01*
G03X3226790Y-6509451I-120814J0D01*
G01X3150057Y-6542786D01*
G01X2095456Y-6542786D01*
G01X1963884Y-6411214D01*
G01X3150057Y-6411214D01*
G01X3226790Y-6444549D01*
G03X3422814Y-6350000I75210J94549D01*
G03X3226790Y-6255451I-120814J0D01*
G01X3150057Y-6288786D01*
G01X1934850Y-6288786D01*
G01X1803278Y-6157214D01*
G01X3150057Y-6157214D01*
G01X3226790Y-6190549D01*
G03X3422814Y-6096000I75210J94549D01*
G03X3226790Y-6001451I-120814J0D01*
G01X3150057Y-6034786D01*
G01X1774245Y-6034786D01*
G01X1642673Y-5903214D01*
G01X3150057Y-5903214D01*
G01X3226790Y-5936549D01*
G03X3422814Y-5842000I75210J94549D01*
G03X3226790Y-5747451I-120814J0D01*
G01X3150057Y-5780786D01*
G01X1613640Y-5780786D01*
G01X1482068Y-5649214D01*
G01X3150057Y-5649214D01*
G01X3226790Y-5682549D01*
G03X3422814Y-5588000I75210J94549D01*
G03X3226790Y-5493451I-120814J0D01*
G01X3150057Y-5526786D01*
G01X1453034Y-5526786D01*
G01X1359562Y-5433314D01*
G01X3169121Y-5433314D01*
G01X3272820Y-5451237D01*
G03X3412460Y-5285067I29180J117237D01*
G03X3195563Y-5276841I-110460J-48933D01*
G01X3137058Y-5310886D01*
G01X1330529Y-5310886D01*
G01X759714Y-4740071D01*
G01X759714Y-2324203D01*
G03X740030Y-2247001I-61214J25503D01*
G03X660400Y-2244423I-41530J-51699D01*
G03X584200Y-2244423I-38100J-54277D01*
G03X508000Y-2244423I-38100J-54277D01*
G03X431800Y-2244423I-38100J-54277D01*
G03X355600Y-2244423I-38100J-54277D01*
G03X275970Y-2247001I-38100J-54277D01*
G03X256286Y-2324203I41530J-51699D01*
G01X256286Y-4851400D01*
G01X2941384Y-1643654D02*
G01X3014516Y-1716786D01*
G01X2882900Y-1716786D01*
G03X2847086Y-1752600I0J-35814D01*
G01X2847086Y-1905000D01*
G03X2882900Y-1940814I35814J0D01*
G01X3035300Y-1940814D01*
G03X3071114Y-1905000I0J35814D01*
G01X3071114Y-1773384D01*
G01X3073326Y-1775596D01*
G01X3101931Y-1842530D01*
G03X3292306Y-1908006I111169J13730D01*
G03X3226830Y-1717631I-79206J79206D01*
G01X3159896Y-1689026D01*
G01X3043384Y-1572514D01*
G01X3124244Y-1572514D01*
G01X3327326Y-1775596D01*
G01X3355931Y-1842530D01*
G03X3546306Y-1908006I111169J13730D01*
G03X3480830Y-1717631I-79206J79206D01*
G01X3413896Y-1689026D01*
G01X3192885Y-1468015D01*
G03X3149600Y-1450086I-43285J-43285D01*
G01X1219303Y-1450086D01*
G03X1194282Y-1444988I-25503J-61214D01*
G01X1206352Y-1432918D01*
G03X1227991Y-1324709I-25252J61318D01*
G03X1119782Y-1346348I-46891J-46891D01*
G01X1048915Y-1417215D01*
G03X1030986Y-1460500I43285J-43285D01*
G01X1030986Y-1531640D01*
G03X1048915Y-1574925I61214J0D01*
G01X1099715Y-1625725D01*
G03X1143000Y-1643654I43285J43285D01*
G01X2941384Y-1643654D01*
G01X1219303Y-840486D02*
G03X1127486Y-901700I-25503J-61214D01*
G03X1219303Y-962914I66314J0D01*
G01X2019300Y-962914D01*
G03X2062585Y-944985I0J61214D01*
G01X2603352Y-404218D01*
G03X2624991Y-296009I-25252J61318D01*
G03X2516782Y-317648I-46891J-46891D01*
G01X1993944Y-840486D01*
G01X1219303Y-840486D01*
G01X1273909Y-2035909D02*
G03X1295548Y-2144118I46891J-46891D01*
G01X2115715Y-2964285D01*
G03X2159000Y-2982214I43285J43285D01*
G01X2940093Y-2982214D01*
G01X3129106Y-3171227D01*
G03X2971216Y-3363221I-36657J-130773D01*
G03X3219449Y-3350129I121233J61221D01*
G03X3346449Y-3437814I127000J48129D01*
G03X3473449Y-3350129I0J135814D01*
G03X3736263Y-3302000I127000J48129D01*
G03X3473449Y-3253871I-135814J0D01*
G03X3360305Y-3166895I-127000J-48129D01*
G01X3263789Y-3132770D01*
G01X3008734Y-2877715D01*
G03X2965449Y-2859786I-43285J-43285D01*
G01X2184356Y-2859786D01*
G01X1382118Y-2057548D01*
G03X1273909Y-2035909I-61318J-25252D01*
G01X3101086Y-546100D02*
G03X3325114Y-546100I112014J0D01*
G03X3101086Y-546100I-112014J0D01*
G01X3302000Y-7753186D02*
G03X3302000Y-7994814I0J-120814D01*
G03X3302000Y-7753186I0J120814D01*
G01X3302000Y-8007186D02*
G03X3302000Y-8248814I0J-120814D01*
G03X3302000Y-8007186I0J120814D01*
G01X3302000Y-8261186D02*
G03X3302000Y-8502814I0J-120814D01*
G03X3302000Y-8261186I0J120814D01*
G01X3302000Y-8515186D02*
G03X3302000Y-8756814I0J-120814D01*
G03X3302000Y-8515186I0J120814D01*
G01X3302000Y-8769186D02*
G03X3302000Y-9010814I0J-120814D01*
G03X3302000Y-8769186I0J120814D01*
G01X3302000Y-9023186D02*
G03X3302000Y-9264814I0J-120814D01*
G03X3302000Y-9023186I0J120814D01*
G01X3302000Y-6737186D02*
G03X3302000Y-6978814I0J-120814D01*
G03X3302000Y-6737186I0J120814D01*
G01X3302000Y-6991186D02*
G03X3302000Y-7232814I0J-120814D01*
G03X3302000Y-6991186I0J120814D01*
G01X3302000Y-7245186D02*
G03X3302000Y-7486814I0J-120814D01*
G03X3302000Y-7245186I0J120814D01*
G01X3302000Y-7499186D02*
G03X3302000Y-7740814I0J-120814D01*
G03X3302000Y-7499186I0J120814D01*
G01X3302000Y-4959186D02*
G03X3302000Y-5200814I0J-120814D01*
G03X3302000Y-4959186I0J120814D01*
G01X3181186Y-4911000D02*
G03X3217000Y-4946814I35814J0D01*
G01X3387000Y-4946814D01*
G03X3422814Y-4911000I0J35814D01*
G01X3422814Y-4741000D01*
G03X3387000Y-4705186I-35814J0D01*
G01X3217000Y-4705186D01*
G03X3181186Y-4741000I0J-35814D01*
G01X3181186Y-4911000D01*
G01X3355086Y-546100D02*
G03X3579114Y-546100I112014J0D01*
G03X3355086Y-546100I-112014J0D01*
G01X3609086Y-546100D02*
G03X3833114Y-546100I112014J0D01*
G03X3609086Y-546100I-112014J0D01*
G01X3609086Y-1828800D02*
G03X3833114Y-1828800I112014J0D01*
G03X3609086Y-1828800I-112014J0D01*
G54D11*
G01X3302000Y-8805254D02*
G01X3302000Y-8779346D01*
G01X3302000Y-8974746D02*
G01X3302000Y-9000654D01*
G01X3386746Y-8890000D02*
G01X3412654Y-8890000D01*
G01X3217254Y-8890000D02*
G01X3191346Y-8890000D01*
G01X3302000Y-9059254D02*
G01X3302000Y-9033346D01*
G01X3302000Y-9228746D02*
G01X3302000Y-9254654D01*
G01X3386746Y-9144000D02*
G01X3412654Y-9144000D01*
G01X3217254Y-9144000D02*
G01X3191346Y-9144000D01*
G01X3700195Y-3302000D02*
G01X3726103Y-3302000D01*
G01X3600449Y-3202254D02*
G01X3600449Y-3176346D01*
G01X3600449Y-3401746D02*
G01X3600449Y-3427654D01*
G01X3645154Y-1828800D02*
G01X3619246Y-1828800D01*
G01X3797046Y-1828800D02*
G01X3822954Y-1828800D01*
G01X3721100Y-1752854D02*
G01X3721100Y-1726946D01*
G01X3721100Y-1904746D02*
G01X3721100Y-1930654D01*
G01X3645154Y-546100D02*
G01X3619246Y-546100D01*
G01X3797046Y-546100D02*
G01X3822954Y-546100D01*
G01X3721100Y-470154D02*
G01X3721100Y-444246D01*
G01X3721100Y-622046D02*
G01X3721100Y-647954D01*
G01X-3302000Y-9059254D02*
G01X-3302000Y-9033346D01*
G01X-3302000Y-9228746D02*
G01X-3302000Y-9254654D01*
G01X-3217254Y-9144000D02*
G01X-3191346Y-9144000D01*
G01X-3386746Y-9144000D02*
G01X-3412654Y-9144000D01*
G01X-3302000Y-8805254D02*
G01X-3302000Y-8779346D01*
G01X-3302000Y-8974746D02*
G01X-3302000Y-9000654D01*
G01X-3217254Y-8890000D02*
G01X-3191346Y-8890000D01*
G01X-3386746Y-8890000D02*
G01X-3412654Y-8890000D01*
G01X-2896646Y-1231900D02*
G01X-2922554Y-1231900D01*
G01X-2742154Y-1231900D02*
G01X-2716246Y-1231900D01*
G01X-2819400Y-1154654D02*
G01X-2819400Y-1128746D01*
G01X-2819400Y-1309146D02*
G01X-2819400Y-1335054D01*
G01X-2196846Y-3162300D02*
G01X-2222754Y-3162300D01*
G01X-2044954Y-3162300D02*
G01X-2019046Y-3162300D01*
G01X-2120900Y-3086354D02*
G01X-2120900Y-3060446D01*
G01X-2120900Y-3238246D02*
G01X-2120900Y-3264154D01*
G04 Copper End*

G04 TearDrop Start*
G36*
G01X3352711Y-3202197D02*
G01X3244201Y-3163832D01*
G01X3208280Y-3199753D01*
G01X3246645Y-3308262D01*
G01X3352711Y-3202197D01*
G37*
G36*
G01X3471872Y-1752750D02*
G01X3393462Y-1719241D01*
G01X3357541Y-1755162D01*
G01X3391050Y-1833572D01*
G01X3471872Y-1752750D01*
G37*
G36*
G01X3217872Y-1752750D02*
G01X3139462Y-1719241D01*
G01X3103541Y-1755162D01*
G01X3137050Y-1833572D01*
G01X3217872Y-1752750D01*
G37*
G36*
G01X3035300Y-850900D02*
G01X3035300Y-622300D01*
G01X2882900Y-622300D01*
G01X2882900Y-850900D01*
G01X3035300Y-850900D01*
G37*
G36*
G01X-3225800Y-5080000D02*
G01X-3217000Y-4911000D01*
G01X-3387000Y-4911000D01*
G01X-3378200Y-5080000D01*
G01X-3225800Y-5080000D01*
G37*
G36*
G01X-3225800Y-4512400D02*
G01X-3378200Y-4512400D01*
G01X-3387000Y-4741000D01*
G01X-3217000Y-4741000D01*
G01X-3225800Y-4512400D01*
G37*
G36*
G01X-3245778Y-5905750D02*
G01X-3157500Y-5867400D01*
G01X-3157500Y-5816600D01*
G01X-3245778Y-5778250D01*
G01X-3245778Y-5905750D01*
G37*
G36*
G01X-3245778Y-6159750D02*
G01X-3157500Y-6121400D01*
G01X-3157500Y-6070600D01*
G01X-3245778Y-6032250D01*
G01X-3245778Y-6159750D01*
G37*
G36*
G01X-3245778Y-6413750D02*
G01X-3157500Y-6375400D01*
G01X-3157500Y-6324600D01*
G01X-3245778Y-6286250D01*
G01X-3245778Y-6413750D01*
G37*
G36*
G01X-3245778Y-6667750D02*
G01X-3157500Y-6629400D01*
G01X-3157500Y-6578600D01*
G01X-3245778Y-6540250D01*
G01X-3245778Y-6667750D01*
G37*
G36*
G01X-3245778Y-6921750D02*
G01X-3157500Y-6883400D01*
G01X-3157500Y-6832600D01*
G01X-3245778Y-6794250D01*
G01X-3245778Y-6921750D01*
G37*
G36*
G01X-3245778Y-7175750D02*
G01X-3157500Y-7137400D01*
G01X-3157500Y-7086600D01*
G01X-3245778Y-7048250D01*
G01X-3245778Y-7175750D01*
G37*
G36*
G01X-3245778Y-7429750D02*
G01X-3157500Y-7391400D01*
G01X-3157500Y-7340600D01*
G01X-3245778Y-7302250D01*
G01X-3245778Y-7429750D01*
G37*
G36*
G01X-3245778Y-7683750D02*
G01X-3157500Y-7645400D01*
G01X-3157500Y-7594600D01*
G01X-3245778Y-7556250D01*
G01X-3245778Y-7683750D01*
G37*
G36*
G01X3223167Y-5302214D02*
G01X3146720Y-5346700D01*
G01X3172193Y-5397500D01*
G01X3280317Y-5416188D01*
G01X3223167Y-5302214D01*
G37*
G36*
G01X3245778Y-5524250D02*
G01X3157500Y-5562600D01*
G01X3157500Y-5613400D01*
G01X3245778Y-5651750D01*
G01X3245778Y-5524250D01*
G37*
G36*
G01X3245778Y-5778250D02*
G01X3157500Y-5816600D01*
G01X3157500Y-5867400D01*
G01X3245778Y-5905750D01*
G01X3245778Y-5778250D01*
G37*
G36*
G01X3245778Y-6032250D02*
G01X3157500Y-6070600D01*
G01X3157500Y-6121400D01*
G01X3245778Y-6159750D01*
G01X3245778Y-6032250D01*
G37*
G36*
G01X3245778Y-6286250D02*
G01X3157500Y-6324600D01*
G01X3157500Y-6375400D01*
G01X3245778Y-6413750D01*
G01X3245778Y-6286250D01*
G37*
G36*
G01X3245778Y-6540250D02*
G01X3157500Y-6578600D01*
G01X3157500Y-6629400D01*
G01X3245778Y-6667750D01*
G01X3245778Y-6540250D01*
G37*
G04 TearDrop End*

G04 Pad Start*
G54D12*
G01X-2120900Y-3162300D03*
G01X-2374900Y-3162300D03*
G01X-2628900Y-3162300D03*
G54D13*
G01X-2882900Y-3162300D03*
G54D14*
G01X3092449Y-3302000D03*
G01X3346449Y-3302000D03*
G01X3600449Y-3302000D03*
G54D12*
G01X3721100Y-1828800D03*
G01X3467100Y-1828800D03*
G01X3213100Y-1828800D03*
G54D13*
G01X2959100Y-1828800D03*
G54D12*
G01X3721100Y-546100D03*
G01X3467100Y-546100D03*
G01X3213100Y-546100D03*
G54D13*
G01X2959100Y-546100D03*
G54D15*
G01X-3619500Y-1231900D03*
G54D17*
G01X-3365500Y-1231900D03*
G54D15*
G01X-2819400Y-1231900D03*
G54D17*
G01X-2565400Y-1231900D03*
G54D18*
G01X-3302000Y-4826000D03*
G54D19*
G01X-3302000Y-5080000D03*
G01X-3302000Y-5334000D03*
G01X-3302000Y-5588000D03*
G01X-3302000Y-5842000D03*
G01X-3302000Y-6096000D03*
G01X-3302000Y-6350000D03*
G01X-3302000Y-6604000D03*
G01X-3302000Y-6858000D03*
G01X-3302000Y-7112000D03*
G01X-3302000Y-7366000D03*
G01X-3302000Y-7620000D03*
G01X-3302000Y-7874000D03*
G01X-3302000Y-8128000D03*
G01X-3302000Y-8382000D03*
G01X-3302000Y-8636000D03*
G01X-3302000Y-8890000D03*
G01X-3302000Y-9144000D03*
G54D18*
G01X3302000Y-4826000D03*
G54D19*
G01X3302000Y-5080000D03*
G01X3302000Y-5334000D03*
G01X3302000Y-5588000D03*
G01X3302000Y-5842000D03*
G01X3302000Y-6096000D03*
G01X3302000Y-6350000D03*
G01X3302000Y-6604000D03*
G01X3302000Y-6858000D03*
G01X3302000Y-7112000D03*
G01X3302000Y-7366000D03*
G01X3302000Y-7620000D03*
G01X3302000Y-7874000D03*
G01X3302000Y-8128000D03*
G01X3302000Y-8382000D03*
G01X3302000Y-8636000D03*
G01X3302000Y-8890000D03*
G01X3302000Y-9144000D03*
G04 Pad End*

G04 Via Start*
G54D20*
G01X-1104900Y-2184400D03*
G01X-1028700Y-2120900D03*
G01X-495300Y-1905000D03*
G01X-495300Y-2032000D03*
G01X-495300Y-2159000D03*
G01X-495300Y-2286000D03*
G01X-495300Y-2400300D03*
G01X-495300Y-2514600D03*
G01X317500Y-2298700D03*
G01X393700Y-2298700D03*
G01X469900Y-2298700D03*
G01X546100Y-2298700D03*
G01X622300Y-2298700D03*
G01X698500Y-2298700D03*
G01X-774700Y-850900D03*
G01X-1032967Y-844436D03*
G01X1016623Y-844436D03*
G01X747142Y-844436D03*
G01X889000Y-736600D03*
G01X-2362200Y-1968500D03*
G01X-2755900Y-1955800D03*
G01X-2362200Y-2209800D03*
G01X-2755900Y-2222500D03*
G01X-2578100Y-2209800D03*
G01X-1803400Y-2057400D03*
G01X-1917700Y-1993900D03*
G01X-1841500Y-1993900D03*
G01X-1879600Y-2057400D03*
G01X-2286000Y-2095500D03*
G01X-1663700Y-863600D03*
G01X-1663700Y-1066800D03*
G01X-2400097Y-291443D03*
G01X-2260600Y-914400D03*
G01X-2286000Y-1397000D03*
G01X-1955800Y-2057400D03*
G01X-3517900Y-2565400D03*
G01X-1447800Y-1689100D03*
G01X1740103Y-285701D03*
G01X1320800Y-2082800D03*
G01X2273300Y-1117600D03*
G01X2146300Y-914400D03*
G01X1193800Y-901700D03*
G01X2578100Y-342900D03*
G01X1193800Y-1511300D03*
G01X1524000Y-1117600D03*
G01X1181100Y-1371600D03*
G01X-2794000Y-2552700D03*
G01X-2854867Y-2491833D03*
G01X-2781300Y-2476500D03*
G01X-1435100Y-1409700D03*
G01X-1181100Y-1409700D03*
G01X-1739900Y-2768600D03*
G01X-1778000Y-3098800D03*
G01X-2578100Y-1968500D03*
G01X-1663700Y-1676400D03*
G01X2070100Y-1739900D03*
G54D21*
G01X-149974Y-1546390D03*
G01X-149974Y-1686395D03*
G01X-9969Y-1686395D03*
G01X-9969Y-1546390D03*
G01X-79972Y-1476388D03*
G01X-79972Y-1616392D03*
G01X-79972Y-1756397D03*
G01X-289979Y-1686395D03*
G01X-289979Y-1546390D03*
G01X-219977Y-1476388D03*
G01X-219977Y-1616392D03*
G01X-219977Y-1756397D03*
G04 Via End*

G04 Track Start*
G54D22*
G01X3263900Y-5372100D02*
G01X3302000Y-5334000D01*
G01X2070100Y-6604000D02*
G01X3302000Y-6604000D01*
G54D12*
G01X-1879600Y-2057400D02*
G01X-1803400Y-2057400D01*
G01X-1803400Y-2032000D01*
G01X-1841500Y-1993900D01*
G01X-1917700Y-1993900D01*
G01X-1917700Y-2019300D01*
G01X-1955800Y-2057400D01*
G54D22*
G01X1320800Y-2082800D02*
G01X2159000Y-2921000D01*
G01X2965449Y-2921000D02*
G01X3346449Y-3302000D01*
G01X2159000Y-2921000D02*
G01X2965449Y-2921000D01*
G54D12*
G01X-2781300Y-2476500D02*
G01X-2796633Y-2491833D01*
G01X-2854867Y-2491833D01*
G01X-2794000Y-2552700D02*
G01X-3302000Y-3060700D01*
G01X-3302000Y-4826000D01*
G01X2273300Y-1117600D02*
G01X1524000Y-1117600D01*
G01X1511300Y-1104900D01*
G01X2959100Y-546100D02*
G01X2959100Y-863600D01*
G01X2705100Y-1117600D02*
G01X2959100Y-863600D01*
G01X2273300Y-1117600D02*
G01X2705100Y-1117600D01*
G54D22*
G01X1193800Y-1511300D02*
G01X3149600Y-1511300D01*
G01X3467100Y-1828800D01*
G01X1193800Y-901700D02*
G01X2019300Y-901700D01*
G01X2578100Y-342900D01*
G54D12*
G01X1511300Y-1104900D02*
G01X-1529351Y-1104900D01*
G01X-1841500Y-1417049D01*
G01X-1841500Y-1993900D01*
G54D22*
G01X-1435100Y-1409700D02*
G01X-1181100Y-1409700D01*
G01X-1739900Y-2768600D02*
G01X-1739900Y-3060700D01*
G01X-1778000Y-3098800D01*
G54D12*
G01X-3302000Y-4826000D02*
G01X-3302000Y-5080000D01*
G54D22*
G01X-2590800Y-7112000D02*
G01X-3302000Y-7112000D01*
G01X-2751405Y-7366000D02*
G01X-3302000Y-7366000D01*
G01X-2430195Y-6858000D02*
G01X-3302000Y-6858000D01*
G01X-2269589Y-6604000D02*
G01X-3302000Y-6604000D01*
G01X-2108984Y-6350000D02*
G01X-3302000Y-6350000D01*
G01X-1948379Y-6096000D02*
G01X-3302000Y-6096000D01*
G01X-1790700Y-5842000D02*
G01X-3224493Y-5842000D01*
G01X1748889Y-6096000D02*
G01X3302000Y-6096000D01*
G01X1588284Y-5842000D02*
G01X3302000Y-5842000D01*
G01X1427679Y-5588000D02*
G01X3302000Y-5588000D01*
G01X1305173Y-5372100D02*
G01X3263900Y-5372100D01*
G01X1909495Y-6350000D02*
G01X3302000Y-6350000D01*
G01X317500Y-2298700D02*
G01X317500Y-4851400D01*
G01X2070100Y-6604000D01*
G01X393700Y-2298700D02*
G01X388640Y-2303760D01*
G01X388640Y-4829145D01*
G01X1909495Y-6350000D01*
G01X469900Y-2298700D02*
G01X469900Y-4817011D01*
G01X1748889Y-6096000D01*
G01X546100Y-2298700D02*
G01X546100Y-4799816D01*
G01X1588284Y-5842000D01*
G01X698500Y-2298700D02*
G01X698500Y-4765427D01*
G01X1305173Y-5372100D01*
G01X622300Y-2298700D02*
G01X622300Y-4782621D01*
G01X1427679Y-5588000D01*
G01X1181100Y-1371600D02*
G01X1092200Y-1460500D01*
G01X-495300Y-2514600D02*
G01X-495300Y-6197600D01*
G01X-1917700Y-7620000D01*
G01X-3302000Y-7620000D01*
G01X-495300Y-2400300D02*
G01X-581660Y-2486660D01*
G01X-581660Y-5196255D01*
G01X-2751405Y-7366000D01*
G01X-495300Y-2286000D02*
G01X-647700Y-2438400D01*
G01X-647700Y-5168900D01*
G01X-2590800Y-7112000D01*
G01X-713740Y-5141545D02*
G01X-2430195Y-6858000D01*
G01X-495300Y-2159000D02*
G01X-713740Y-2377440D01*
G01X-713740Y-5141545D01*
G01X-495300Y-2032000D02*
G01X-779780Y-2316480D01*
G01X-779780Y-5114191D01*
G01X-2269589Y-6604000D01*
G01X-495300Y-1905000D02*
G01X-845820Y-2255520D01*
G01X-845820Y-5086836D01*
G01X-2108984Y-6350000D01*
G01X-1028700Y-2120900D02*
G01X-911860Y-2237740D01*
G01X-911860Y-5059481D01*
G01X-1948379Y-6096000D01*
G01X-1104900Y-2184400D02*
G01X-977900Y-2311400D01*
G01X-977900Y-5029200D01*
G01X-1790700Y-5842000D01*
G01X1092200Y-1460500D02*
G01X1092200Y-1531640D01*
G01X1143000Y-1582440D01*
G01X2966740Y-1582440D01*
G01X3213100Y-1828800D01*
G04 Track End*

M02*

