G04 Layer: BoardOutlineLayer*
G04 EasyEDA Pro v2.2.28.1, 2024-09-11 15:41:32*
G04 Gerber Generator version 0.3*
G04 Scale: 100 percent, Rotated: No, Reflected: No*
G04 Dimensions in millimeters*
G04 Leading zeros omitted, absolute positions, 3 integers and 5 decimals*
%FSLAX35Y35*%
%MOMM*%
%ADD10C,0.1*%
G75*


G04 PolygonModel Start*
G54D10*
G01X-3975249Y-8097250D02*
G01X-3975249Y-9797246D01*
G01X-4175248Y-6897252D02*
G03X-3975249Y-6697253I0J200000D01*
G01X4175248Y-7897250D02*
G03X3975249Y-8097250I0J-200000D01*
G01X4999990Y-1246750D02*
G01X4175248Y-1246750D01*
G01X4999990Y-7897250D02*
G01X4999990Y-7531994D01*
G01X-4999990Y-1932005D02*
G01X-4999990Y-2246748D01*
G01X3775249Y-9997246D02*
G03X3975249Y-9797246I0J200000D01*
G01X-3975249Y-9797246D02*
G03X-3775249Y-9997246I200000J0D01*
G01X3975249Y-9797246D02*
G01X3975249Y-8097250D01*
G01X-3975249Y-8097250D02*
G03X-4175248Y-7897250I-200000J0D01*
G01X4899990Y-1612006D02*
G03X4899990Y-1932005I0J-160000D01*
G01X4999990Y-7531994D02*
G01X4899990Y-7531994D01*
G01X-3975249Y-2446747D02*
G01X-3975249Y-6697253D01*
G01X-3975249Y2734D02*
G01X-3975249Y-1046750D01*
G01X-4999990Y-7897250D02*
G01X-4175248Y-7897250D01*
G01X-3775249Y-9997246D02*
G01X3775249Y-9997246D01*
G01X4999990Y-2246748D02*
G01X4999990Y-1932005D01*
G01X3975249Y-6697253D02*
G01X3975249Y-2446747D01*
G01X3975249Y-1046750D02*
G03X4175248Y-1246750I200000J0D01*
G01X4899990Y-7211995D02*
G01X4999990Y-7211995D01*
G01X4899990Y-1612006D02*
G01X4999990Y-1612006D01*
G01X4999990Y-1932005D02*
G01X4899990Y-1932005D01*
G01X-4999990Y-7531994D02*
G01X-4999990Y-7897250D01*
G01X-4899990Y-7531994D02*
G03X-4899990Y-7211995I-0J160000D01*
G01X-4999990Y-1246750D02*
G01X-4999990Y-1612006D01*
G01X3975249Y-1046750D02*
G01X3975249Y2734D01*
G01X-4899990Y-7531994D02*
G01X-4999990Y-7531994D01*
G01X4175248Y-7897250D02*
G01X4999990Y-7897250D01*
G01X-3975249Y-2446747D02*
G03X-4175248Y-2246748I-200000J0D01*
G01X-4999990Y-2246748D02*
G01X-4175248Y-2246748D01*
G01X-4175248Y-6897252D02*
G01X-4999990Y-6897252D01*
G01X-4999990Y-7211995D02*
G01X-4899990Y-7211995D01*
G01X4999990Y-7211995D02*
G01X4999990Y-6897252D01*
G01X3975249Y2734D02*
G01X-3975249Y2734D01*
G01X4999990Y-1612006D02*
G01X4999990Y-1246750D01*
G01X4175248Y-2246748D02*
G01X4999990Y-2246748D01*
G01X-4175248Y-1246750D02*
G01X-4999990Y-1246750D01*
G01X-4999990Y-1612006D02*
G01X-4899990Y-1612006D01*
G01X-4999990Y-6897252D02*
G01X-4999990Y-7211995D01*
G01X-4175248Y-1246750D02*
G03X-3975249Y-1046750I0J200000D01*
G01X4899990Y-7211995D02*
G03X4899990Y-7531994I0J-160000D01*
G01X-4899990Y-1932005D02*
G01X-4999990Y-1932005D01*
G01X3975249Y-6697253D02*
G03X4175248Y-6897252I200000J0D01*
G01X4999990Y-6897252D02*
G01X4175248Y-6897252D01*
G01X4175248Y-2246748D02*
G03X3975249Y-2446747I0J-200000D01*
G01X-4899990Y-1932005D02*
G03X-4899990Y-1612006I-0J160000D01*
G01X-3975249Y-8097250D02*
G01X-3975249Y-9797246D01*
G01X4999990Y-1612006D02*
G01X4999990Y-1246750D01*
G01X4175248Y-1246750D01*
G01X4175248Y-7897250D02*
G01X4999990Y-7897250D01*
G01X4999990Y-7531994D01*
G01X4899990Y-7531994D01*
G01X-4899990Y-1932005D02*
G01X-4999990Y-1932005D01*
G01X-4999990Y-2246748D01*
G01X-4175248Y-2246748D01*
G01X3975249Y-9797246D02*
G01X3975249Y-8097250D01*
G01X-3975249Y-2446747D02*
G01X-3975249Y-6697253D01*
G01X3975249Y2734D02*
G01X-3975249Y2734D01*
G01X-3975249Y-1046750D01*
G01X-4899990Y-7531994D02*
G01X-4999990Y-7531994D01*
G01X-4999990Y-7897250D01*
G01X-4175248Y-7897250D01*
G01X-3775249Y-9997246D02*
G01X3775249Y-9997246D01*
G01X4175248Y-2246748D02*
G01X4999990Y-2246748D01*
G01X4999990Y-1932005D01*
G01X4899990Y-1932005D01*
G01X3975249Y-6697253D02*
G01X3975249Y-2446747D01*
G01X4899990Y-7211995D02*
G01X4999990Y-7211995D01*
G01X4999990Y-6897252D01*
G01X4175248Y-6897252D01*
G01X4899990Y-1612006D02*
G01X4999990Y-1612006D01*
G01X-4175248Y-1246750D02*
G01X-4999990Y-1246750D01*
G01X-4999990Y-1612006D01*
G01X-4899990Y-1612006D01*
G01X3975249Y-1046750D02*
G01X3975249Y2734D01*
G01X-4175248Y-6897252D02*
G01X-4999990Y-6897252D01*
G01X-4999990Y-7211995D01*
G01X-4999990Y-7211995D02*
G01X-4899990Y-7211995D01*

M02*

